<?xml version="1.0" encoding="utf-8"?>
<!-- Generator: Adobe Illustrator 22.0.1, SVG Export Plug-In . SVG Version: 6.00 Build 0)  -->
<svg version="1.1" id="Слой_1" xmlns="http://www.w3.org/2000/svg" xmlns:xlink="http://www.w3.org/1999/xlink" x="0px" y="0px"
	 viewBox="0 0 148.4 36" style="enable-background:new 0 0 148.4 36;" xml:space="preserve">
<style type="text/css">
	.st0{fill:#B7BFFC;}
</style>
<g>
	<path class="st0" d="M59,16c-0.8-1-1.9-1.4-2.9-1.4c-2.5,0-4.4,2-4.4,5.2c0,3.4,1.9,5.2,4.4,5.2c1.1,0,2.1-0.5,2.9-1.4v1.2h3.2V11
		H59V16z M59,21.3c-0.4,0.5-1.2,0.9-1.9,0.9c-1.3,0-2.2-0.9-2.2-2.4s0.9-2.4,2.2-2.4c0.7,0,1.5,0.4,1.9,0.9V21.3z"/>
	<polygon class="st0" points="74.7,13.8 74.7,11 64.2,11 64.2,14.1 70,14.1 64.2,21.9 64.2,24.8 74.8,24.8 74.8,21.7 68.8,21.7 	"/>
	<polygon class="st0" points="76.9,24.8 87,24.8 87,21.7 80.4,21.7 80.4,19.3 86.8,19.3 86.8,16.2 80.4,16.2 80.4,14.1 87,14.1 
		87,11 76.9,11 	"/>
	<polygon class="st0" points="98.2,18.6 92.7,11 89,11 89,24.8 92.6,24.8 92.6,16.8 98.4,24.8 101.8,24.8 101.8,11 98.2,11 	"/>
	<path class="st0" d="M109.1,17.4c0.8,0,1.5,0.4,1.9,0.9l2.1-1.9c-0.6-0.9-1.9-1.8-4.1-1.8c-3.1,0-5.4,2.1-5.4,5.2
		c0,3.1,2.3,5.2,5.4,5.2c2.2,0,3.5-1,4.1-1.8l-2.1-1.9c-0.4,0.6-1,1-1.9,1c-1.3,0-2.3-0.9-2.3-2.4C106.8,18.3,107.8,17.4,109.1,17.4
		z"/>
	<path class="st0" d="M119.3,14.5c-3.4,0-5.4,2.4-5.4,5.2s2,5.2,5.4,5.2c3.4,0,5.4-2.4,5.4-5.2C124.7,17,122.7,14.5,119.3,14.5z
		 M119.3,22.2c-1.4,0-2.1-1.1-2.1-2.4s0.8-2.4,2.1-2.4c1.4,0,2.2,1.1,2.2,2.4S120.7,22.2,119.3,22.2z"/>
	<path class="st0" d="M133.1,16c-0.8-1-1.9-1.4-2.9-1.4c-2.5,0-4.4,2-4.4,5.2c0,3.4,1.9,5.2,4.4,5.2c1.1,0,2.1-0.5,2.9-1.4v1.2h3.2
		V11h-3.2V16z M133.1,21.3c-0.4,0.5-1.2,0.9-1.9,0.9c-1.3,0-2.2-0.9-2.2-2.4s0.9-2.4,2.2-2.4c0.7,0,1.5,0.4,1.9,0.9V21.3z"/>
	<path class="st0" d="M148.3,20.1c0-3.4-2.1-5.5-5.1-5.5c-3.1,0-5.3,2.3-5.3,5.2c0,3.2,2.4,5.2,5.4,5.2c1.5,0,3.2-0.4,4.2-1.3
		l-1.4-2.1c-0.6,0.5-1.7,0.8-2.4,0.8c-1.4,0-2.3-0.7-2.5-1.6h7.1V20.1z M141.2,18.6c0.1-0.7,0.7-1.5,2-1.5c1.5,0,2,0.8,2.1,1.5
		H141.2z"/>
	<path class="st0" d="M18,0C11.5,0,5.4,3.6,2.3,9.2c-1.9,3.5-3,8-1.9,11.9c1.2,4,4.6,7.2,8.8,7.9c1.8,0.3,3.6,0.2,5.3-0.4
		c-6.3-2-9.4-9.4-6.6-15.3c1.7-3.5,5.2-6,9.1-6.3c6.4-0.6,12.1,4.6,12.1,11c0,2.9-0.7,5.9-2.1,8.5c-2.7,5.1-7.1,7.9-12.5,9.3
		c6.5,1.3,13.4-1.3,17.5-6.4c5.6-7,5.1-17.3-1.1-23.7C27.6,2,22.9,0,18,0z"/>
</g>
</svg>
