<?xml version="1.0" encoding="utf-8"?>
<!-- Generator: Adobe Illustrator 19.0.1, SVG Export Plug-In . SVG Version: 6.00 Build 0)  -->
<svg version="1.1" xmlns="http://www.w3.org/2000/svg" xmlns:xlink="http://www.w3.org/1999/xlink" x="0px" y="0px"
	 viewBox="0 0 70 70" style="enable-background:new 0 0 70 70;" xml:space="preserve">
<style type="text/css">
	.st0{fill:#6666CC;}
	.st1{opacity:0.4;fill:#5363DB;}
</style>
<g id="Слой_2">
	<g>
		<path class="st0" d="M5.7,63.1L0,53.2h2.3l4.4,7.7l4.4-7.7h2.3l-5.7,9.9v6.7H5.7V63.1z"/>
		<path class="st0" d="M31.7,55.5c1.7,1.7,2.5,3.7,2.5,6c0,2.3-0.8,4.3-2.5,6C30,69.2,28,70,25.5,70c-2.4,0-4.4-0.8-6.1-2.5
			c-1.7-1.7-2.5-3.7-2.5-6c0-2.3,0.8-4.3,2.5-6c1.7-1.7,3.7-2.5,6.1-2.5C28,53,30,53.8,31.7,55.5z M25.5,54.8
			c-1.8,0-3.3,0.6-4.6,1.9S19,59.6,19,61.5c0,1.9,0.6,3.5,1.9,4.7s2.8,1.9,4.6,1.9c1.8,0,3.3-0.6,4.6-1.9c1.3-1.3,1.9-2.9,1.9-4.7
			c0-1.9-0.6-3.4-1.9-4.7C28.9,55.5,27.3,54.8,25.5,54.8z"/>
		<path class="st0" d="M52.6,67.6C50.9,69.2,49,70,46.7,70c-2.4,0-4.5-0.8-6.1-2.5c-1.7-1.7-2.5-3.7-2.5-6c0-2.3,0.8-4.3,2.5-6
			c1.7-1.7,3.7-2.5,6.1-2.5c2.2,0,4.3,0.9,6.2,2.6l-1.5,1.3c-1.5-1.3-3.1-2-4.7-2c-1.8,0-3.3,0.6-4.6,1.9c-1.3,1.3-1.9,2.9-1.9,4.7
			c0,1.9,0.6,3.5,1.9,4.7c1.3,1.3,2.8,1.9,4.6,1.9c1.5,0,2.8-0.4,3.9-1.3v-5h2.1V67.6z"/>
		<path class="st0" d="M64,53.2l6,16.6h-2.2l-2.5-6.9h-4.5l-2.5,6.9h-2.2l6.1-16.6H64z M64.7,61.1l-1.6-4.4l-1.6,4.4H64.7z"/>
	</g>
</g>
<g id="Layer_1">
	<path class="st1" d="M11.8,41.6c7.5,4.4,16.5,4.1,23.5,0c0-8.1-4.2-16-11.8-20.4S7,17.2,0,21.2C0,29.3,4.2,37.2,11.8,41.6z"/>
	<path class="st1" d="M14.9,29.8c4.4,7.5,12.2,11.8,20.4,11.8c4-7,4.3-16,0-23.5S23,6.3,14.9,6.3C10.9,13.3,10.6,22.3,14.9,29.8z"/>
	<path class="st1" d="M58.2,41.1c-7.5,4.4-16.5,4.1-23.5,0c0-8.1,4.2-16,11.8-20.4s16.5-4.1,23.5,0C69.9,28.9,65.7,36.8,58.2,41.1z"
		/>
	<path class="st1" d="M55,29.4c-4.4,7.5-12.2,11.8-20.4,11.8c-4-7-4.3-16,0-23.5S46.9,5.9,55.1,5.9C59.1,12.9,59.4,21.8,55,29.4z"/>
	<path class="st1" d="M23.4,21.3c0,8.7,4.7,16.3,11.7,20.4c7-4.1,11.7-11.7,11.7-20.4S42.2,5,35.2,0.9C28.2,5,23.4,12.6,23.4,21.3z"
		/>
</g>
</svg>
