<?xml version="1.0" encoding="utf-8"?>
<!-- Generator: Adobe Illustrator 19.0.1, SVG Export Plug-In . SVG Version: 6.00 Build 0)  -->
<svg version="1.1" xmlns="http://www.w3.org/2000/svg" xmlns:xlink="http://www.w3.org/1999/xlink" x="0px" y="0px"
	 viewBox="-3.4 1.8 70 70" style="enable-background:new -3.4 1.8 70 70;" xml:space="preserve">
<style type="text/css">
	.st0{display:none;}
	.st1{display:inline;}
	.st2{fill:#FFFFFF;}
</style>
<g id="Слой_2" class="st0">
	<rect x="-29.8" y="-10.7" class="st1" width="114.3" height="94.3"/>
</g>
<g id="Isolation_Mode">
	<g>
		<path class="st2" d="M31.6,71.8c-19.3,0-35-15.7-35-35s15.7-35,35-35s35,15.7,35,35S50.9,71.8,31.6,71.8z M31.6,3.7
			C13.4,3.7-1.5,18.6-1.5,36.8s14.9,33,33.1,33S64.7,55,64.7,36.7S49.8,3.7,31.6,3.7z"/>
	</g>
	<g>
		<g>
			<path class="st2" d="M34.8,62.3c-0.8,0-1.5-0.7-1.5-1.5c-0.1-6.2,0.4-10.5,1.5-13c0.5-1.2,1.4-2.1,2.1-2.9l0,0
				c0.5-0.6,1.1-1.2,1.2-1.6l0,0l0,0c0.1-0.4,0.2-0.7,0.1-1.1c0-0.2,0-0.5-0.1-0.7c-0.9,0.4-1.8,0.7-2.8,0.7l-0.2,0
				c-1.2,0-2.4-0.3-3.4-0.9c-1.1,0.7-2.3,1.1-3.5,1.1c0,0-0.2,0-0.2,0c-1.1,0-2.1-0.2-3.1-0.7c-0.1,0.3-0.1,0.6-0.1,0.9
				c0,0.3,0.1,0.6,0.2,0.9l0,0l0,0c0.1,0.4,0.7,0.9,1.2,1.5c0.8,0.7,1.7,1.6,2.2,2.8c1.1,2.4,1.6,6.8,1.6,12.9
				c0,0.8-0.7,1.5-1.5,1.5h0c-0.4,0-0.8-0.2-1.1-0.4c-0.3-0.3-0.4-0.7-0.4-1.1c0.1-7.1-0.7-10.2-1.3-11.6c-0.3-0.7-1-1.3-1.6-1.9
				l0,0c-0.8-0.8-1.6-1.6-1.9-2.7c-0.2-0.5-0.3-1.2-0.3-1.8c0-1.5,0.4-2.9,1.4-4.1c0.3-0.3,0.6-0.5,1-0.5c0,0,0.1,0,0.1,0
				c0.4,0,0.7,0.1,1,0.4c0.3,0.2,0.5,0.4,0.8,0.5c0.6,0.3,1.2,0.4,1.8,0.4l0.2,0c0.9,0,1.9-0.4,2.5-1c0.3-0.3,0.6-0.4,1-0.4
				c0.3,0,0.7,0.1,0.9,0.3c0.7,0.6,1.6,0.9,2.5,0.9l0.2,0c0.7,0,1.3-0.2,1.9-0.6c0.2-0.1,0.3-0.2,0.6-0.4c0.3-0.2,0.6-0.4,1-0.4
				c0,0,0.1,0,0.1,0c0.4,0,0.8,0.2,1,0.5c0.9,1.1,1.3,2.3,1.4,3.7c0,0.6-0.1,1.3-0.2,1.9c-0.2,1.1-1,2-1.9,3l0,0
				c-0.6,0.7-1.2,1.3-1.5,2.1c-0.9,2-1.3,6.1-1.2,11.8C36.3,61.6,35.7,62.3,34.8,62.3L34.8,62.3L34.8,62.3z"/>
			<path class="st2" d="M28,37.4c-1,0-1.9-0.2-2.8-0.7c-2-1-3.3-3-3.3-5.2c0-0.6,0.1-1.3,0.2-1.9c0.2-1.1,1-2,1.9-3l0,0
				c0.6-0.7,1.2-1.3,1.5-2.1c0.9-2,1.3-6.1,1.2-11.8c0-0.8,0.7-1.5,1.5-1.5l0,0c0.9,0,1.5,0.6,1.5,1.5c0.1,6.1-0.4,10.5-1.5,13
				c-0.5,1.2-1.4,2.2-2.1,2.9c-0.5,0.6-1.1,1.2-1.2,1.6l0,0l0,0c-0.1,0.4-0.2,0.7-0.1,1.1c0,1.1,0.7,2.2,1.7,2.7
				c0.4,0.2,0.9,0.3,1.4,0.3c0,0,0.1,0,0.1,0c0.9,0,1.8-0.5,2.4-1.2c0.3-0.3,0.7-0.6,1.1-0.6c0,0,0,0,0.1,0c0.4,0,0.8,0.2,1.1,0.5
				c0.6,0.7,1.5,1.1,2.4,1.1l0,0c0.5,0,1-0.2,1.5-0.4c1-0.6,1.6-1.7,1.5-2.8c0-0.3-0.1-0.6-0.2-0.9l0,0l0,0c-0.1-0.4-0.7-1-1.2-1.5
				c-0.8-0.7-1.7-1.6-2.2-2.8c-1.1-2.4-1.7-6.8-1.6-12.9c0-0.9,0.6-1.5,1.5-1.5c0.8,0,1.5,0.7,1.5,1.5C36,19.9,36.7,23,37.4,24.4
				c0.3,0.7,1,1.3,1.6,1.9c0.8,0.8,1.7,1.6,2,2.7c0.2,0.5,0.3,1.2,0.3,1.8c0.1,2.2-1.1,4.3-3,5.5c-0.9,0.5-1.9,0.8-2.9,0.9
				c-0.1,0-0.2,0-0.2,0c-1.2,0-2.4-0.4-3.4-1c-1,0.8-2.2,1.2-3.5,1.3L28,37.4L28,37.4z"/>
		</g>
	</g>
</g>
</svg>
