<?xml version="1.0" encoding="utf-8"?>
<!-- Generator: Adobe Illustrator 19.0.1, SVG Export Plug-In . SVG Version: 6.00 Build 0)  -->
<svg version="1.1" xmlns="http://www.w3.org/2000/svg" xmlns:xlink="http://www.w3.org/1999/xlink" x="0px" y="0px"
	 viewBox="-3.4 1.7 70 70" style="enable-background:new -3.4 1.7 70 70;" xml:space="preserve">
<style type="text/css">
	.st0{display:none;}
	.st1{display:inline;}
	.st2{fill:#FFFFFF;}
</style>
<g id="Слой_2" class="st0">
	<rect x="-50" y="-38.9" class="st1" width="134.5" height="122.5"/>
</g>
<g id="Isolation_Mode">
	<g>
		<path class="st2" d="M31.6,71.7c-19.3,0-35-15.7-35-35s15.7-35,35-35s35,15.7,35,35S50.9,71.7,31.6,71.7z M31.6,3.6
			C13.4,3.6-1.5,18.5-1.5,36.7s14.9,33,33.1,33s33.1-14.8,33.1-33.1S49.8,3.6,31.6,3.6z"/>
	</g>
	<g>
		<path class="st2" d="M27.9,63.2c-0.3,0-0.5,0-0.8-0.1c-0.6-0.2-1-0.6-1.2-1.1c-0.2-0.5-0.1-1.1,0.3-1.6c0.5-0.7,0.6-1.5,0.4-2.9
			c0-0.3-0.1-0.6-0.1-0.9c-0.1-1-0.3-2.1-0.3-3.1c-0.1-1.3-0.1-2.7,0-4.2c0-0.2,0-0.4,0-0.6c0-0.5,0-1,0-1.5c0-0.5-0.1-1-0.2-1.5
			c0-0.2-0.1-0.4-0.1-0.6c-0.1-1-0.2-2-0.3-2.9c0-0.4-0.1-0.8-0.1-1.3c-0.1-0.6-0.1-1.3-0.2-1.9c-0.1-0.6-0.1-1.2-0.2-1.8
			c-0.1-1.4-0.2-2.8-0.3-4.2l0-0.6c0-0.4,0-0.8-0.1-1.2c0-1-0.1-2-0.2-2.9c0-0.1,0-0.2,0-0.3c0-0.6-0.1-1.5-0.5-1.8
			c-0.2-0.2-0.6-0.3-0.8-0.3c-0.3,0-0.6,0-0.9-0.1c-0.3,0-0.7-0.1-1.1-0.1c-0.2,0-0.4,0-0.6-0.1c-0.6-0.1-1.3-0.1-1.9-0.1
			c-0.2,0-0.3,0-0.5,0c-0.5,0-1,0.1-1.5,0.1c-0.6,0.1-1.3,0.2-1.9,0.2c-0.8,0.1-1.7,0.2-2.6,0.3c-0.2,0-0.5,0.1-0.7,0.1
			c-0.7,0.1-1.4,0.2-2.1,0.2c-0.3,0-0.6,0-0.8,0c-0.2,0-0.7-0.1-1-0.5c-0.1-0.2-0.3-0.5-0.2-1c0.3-1.2,1.5-1.4,2.3-1.6
			c0.2,0,0.3-0.1,0.4-0.1c1.3-0.4,2.7-0.7,4.1-1l0.3-0.1c0.7-0.2,1.4-0.3,2.1-0.4c1-0.1,2-0.2,3-0.2c0.2,0,1.6-0.1,1.6-0.1
			c1.1-0.1,2.3-0.2,3.4-0.3l0.2,0c0.4,0,0.8-0.1,1.1-0.1c0,0,0.1,0,0.1,0c0,0,0.1,0,0.2,0c0.1,0,0.2,0,0.2,0c0.4,0,0.7,0.1,1,0.3
			c0.1,0,0.2,0.1,0.2,0.1c0.4,0.1,0.9,0.2,1.3,0.2c0.1,0,0.2,0,0.2,0c0.4,0,0.8-0.2,1.2-0.3c0.6-0.2,1.1-0.3,1.6-0.3
			c1.1-0.1,2.2-0.1,3.3-0.1c0.5,0,1,0,1.5,0c0.3,0,0.6,0,0.9,0c0.5,0,1-0.1,1.5-0.1c0.4,0,0.7,0,1,0c1.6,0.2,3.2,0.4,5,0.6
			c0.2,0,0.4,0.1,0.6,0.1c0.6,0.1,1.3,0.1,2,0.3c0.9,0.3,1.1,0.9,1,1.3c0,0.3-0.2,0.8-0.6,1C48.2,24,47.9,24,47.6,24l-0.1,0
			c-0.6,0.1-1.1,0.2-1.6,0.2c-1.5,0.2-3.1,0.3-4.6,0.5c-1.5,0.1-3,0.3-4.5,0.5c-0.5,0.1-1.1,0.1-1.7,0.2l-0.1,0
			c-0.6,0.1-1,0.2-1.2,0.5c-0.2,0.3-0.2,0.7-0.3,1.1c0,0.1,0,0.3-0.1,0.4l0,0.1c-0.1,0.6-0.2,1.3-0.2,1.9c0,1.2,0.2,2.4,0.4,3.4
			c0.3,0,0.6,0.1,0.9,0.1c1,0.1,1.9,0.2,2.9,0.3c2.2,0.2,4.4,0.6,6.8,1.1c1.5,0.3,3.1,0.7,4.6,1.2c0.5,0.2,0.9,0.3,1.3,0.5
			c0.2,0.1,0.3,0.2,0.5,0.2c0.9,0.4,1.8,0.6,2.7,0.8l0.3,0.1c0,0,0.1,0,0.1,0c0,0,0.1,0,0.1,0c0.6,0.2,1.3,0.8,1.6,1.5
			c0.2,0.4,0.1,0.9-0.1,1.3c-0.4,0.7-1.2,1.2-2.1,1.2c-0.4,0-0.7-0.1-1.1-0.2c-0.4-0.2-0.8-0.3-1.2-0.5c-0.8-0.3-1.6-0.6-2.4-0.8
			c-0.6-0.2-1.3-0.2-2.1-0.2c-0.3,0-0.6,0-0.9,0c-0.4,0-0.7,0-1.1,0.1c-0.8,0.1-1.5,0.1-2.3,0.1l-0.1,0c-0.6,0-1.2,0-1.8-0.1
			c-0.2,0-0.5,0-0.7,0c-1.7-0.1-3.4-0.2-5-0.3l-0.3,0c-0.7,0-1.4-0.1-2-0.1c-0.1,0-0.2,0-0.2,0c0,0,0,0-0.1,0c0,0.1,0,0.2,0,0.3
			c0,0.1,0,0.2,0,0.3l0,0.1c0,0.7-0.1,1.4-0.1,2.1l0,0.6c-0.1,1.3-0.1,2.7-0.2,4.1c0,0.6-0.1,1.2-0.2,1.7c-0.1,0.6-0.2,1.2-0.2,1.8
			c0,1.3-0.1,2.7-0.3,4.2c-0.1,0.4-0.1,0.8-0.2,1.2c-0.2,1-0.3,1.9-0.4,2.9c0,0.5,0,1.1,0.1,1.6l0,0.2c0,0.4,0.1,1.1-0.2,1.7
			C29.8,62.7,28.9,63.2,27.9,63.2z M28.3,60.5c-0.1,0.1-0.1,0.3-0.2,0.4c0,0.1-0.1,0.1-0.2,0.2c0,0-0.1,0.1-0.1,0.1
			c0.2,0,0.3,0,0.3-0.1C28.3,61.2,28.4,61,28.3,60.5z M18.7,23.5c0.1,0,0.2,0,0.4,0c1.2,0,2.4,0.2,3.5,0.3c0.2,0,0.5,0,0.7,0.1
			c1.2,0.1,2,0.6,2.5,1.4c0.5,0.9,0.6,1.9,0.7,2.8l0,0.1c0,0.5,0.1,1,0.1,1.5l0,0.2c0,0.5,0,1,0.1,1.5c0.1,1.2,0.1,2.4,0.2,3.6
			c0.1,1.3,0.2,2.7,0.4,4c0.1,0.6,0.1,1.2,0.2,1.7c0,0.4,0.1,0.9,0.1,1.3c0.1,1,0.2,2,0.3,3c0,0.2,0,0.3,0.1,0.5
			c0.1,0.5,0.2,1.1,0.2,1.6c0,0.5,0,1.1,0,1.6c0,0.2,0,0.3,0,0.5c0,1.7,0,2.9,0,4.1c0.1,1,0.2,1.9,0.3,2.9c0-0.3,0.1-0.6,0.1-0.9
			c0-0.3,0.1-0.6,0.1-0.8c0.2-1.4,0.4-2.7,0.4-4.2c0-0.7,0.1-1.4,0.2-2.1c0.1-0.6,0.1-1.1,0.2-1.7c0.1-1.3,0.1-2.6,0.2-3.9l0-0.7
			c0-0.4,0-0.7,0-1.1c0-0.7,0.1-1.4,0.1-2.2c0-0.6,0.5-1.4,1.2-1.6c0.1,0,0.2,0,0.2,0c0,0,0,0,0,0c0,0,0.1,0,0.1,0l0.1,0
			c0.4,0,0.8,0.1,1.2,0.1c0,0,1.5,0.1,2.1,0.1c1.1,0.1,2.2,0.1,3.3,0.2c0.3,0,0.6,0,1,0.1c1.1,0.1,2.1,0.1,3.2,0.1
			c0.5,0,0.9,0,1.3,0c0.2,0,0.5,0,0.7,0c0.7,0,1.4-0.1,2.1-0.1c0.2,0,0.4,0,0.6,0c1,0.1,2,0.3,2.9,0.6c-0.2-0.1-0.5-0.2-0.7-0.3
			c-0.1,0-0.2-0.1-0.3-0.1c-0.6-0.3-1.3-0.5-2-0.7l-0.2-0.1c-1.4-0.4-3-0.7-4.9-1.1l-0.4-0.1c-0.9-0.2-1.8-0.4-2.7-0.4
			c-0.9-0.1-1.8-0.2-2.6-0.3l-1.5-0.2c-0.4,0-0.8-0.1-1.2-0.1c-0.1,0-0.2,0-0.3,0c-0.2,0-0.5,0-0.8-0.1c-0.3-0.1-0.6-0.4-0.7-0.7
			c-0.3-1.2-0.5-2.7-0.6-4.2c0-0.8,0.1-1.6,0.2-2.2c0-0.2,0-0.3,0.1-0.5c0.1-0.4,0.1-0.9,0.3-1.4c0.3-1.1,1.1-1.8,2.2-2
			c0.5-0.1,1-0.2,1.5-0.2c1.9-0.3,3.9-0.4,5.8-0.6c0.4,0,0.7-0.1,1.1-0.1c-0.9-0.1-1.8-0.2-2.6-0.3c-0.1,0-0.1,0-0.2,0
			c-0.2,0-0.4,0-0.6,0c-0.1,0-0.3,0-0.4,0c-0.8,0-1.6,0.1-2.5,0.1c-0.4,0-0.8,0-1.2,0c-1,0-2,0-3,0.1c-0.1,0-0.1,0-0.2,0
			c0,0-0.1,0-0.1,0c-0.2,0.1-0.4,0.1-0.5,0.2c-0.4,0.1-0.9,0.2-1.4,0.3c-0.2,0-0.4,0-0.6,0c-0.9,0-1.6-0.3-2.4-0.5
			c-0.1,0-0.1,0-0.2-0.1c-0.1,0-0.2,0-0.2,0c0,0-0.1,0-0.1,0c-0.3,0-0.7,0.1-1.1,0.1c-1,0.1-2,0.2-3,0.2l-1.1,0.1
			c-0.9,0.1-1.8,0.1-2.7,0.2c-0.1,0-0.3,0-0.4,0c-0.6,0-1.2,0.1-1.7,0.2c-0.3,0.1-0.7,0.1-1.1,0.2l0.1,0c0.2,0,0.5-0.1,0.7-0.1
			C17,23.6,17.9,23.5,18.7,23.5z M51.4,38.5c0.4,0.1,0.7,0.3,1.1,0.4c0.3,0.1,0.6,0.2,0.8,0.2c0.1,0,0.1,0,0.2,0
			c-0.1-0.1-0.2-0.2-0.3-0.2c-0.1,0-0.3-0.1-0.4-0.1C52.3,38.8,51.9,38.7,51.4,38.5z"/>
		<path class="st2" d="M53.6,37.7c-1.1-0.3-2.2-0.5-3.2-1c-0.6-0.3-1.1-0.5-1.7-0.7c-1.5-0.5-3-0.8-4.5-1.2
			c-2.3-0.5-4.5-0.9-6.8-1.1c-1-0.1-1.9-0.2-2.9-0.3c-0.4,0-0.8-0.1-1.1-0.1c-0.1,0-0.2,0-0.4,0c-0.1,0-0.2,0-0.1,0
			c0.1,0.1,0.2,0.2,0.2,0.2c-0.3-1.4-0.5-2.8-0.5-4.2c0-0.7,0.1-1.4,0.3-2.1c0.1-0.6,0.1-1.1,0.4-1.7c0.3-0.6,1.1-0.7,1.7-0.8
			c0.6-0.1,1.2-0.2,1.7-0.2c3-0.3,6.1-0.6,9.1-0.9c0.5-0.1,1-0.1,1.6-0.2c0.3,0,0.6-0.1,0.8-0.2c0.2-0.1,0.3-0.3,0.3-0.5
			c0-0.4-0.3-0.5-0.6-0.6c-0.8-0.2-1.7-0.3-2.5-0.4c-1.7-0.2-3.3-0.4-5-0.6c-1.1-0.1-2.2,0-3.3,0.1c-1.6,0.1-3.2,0.1-4.8,0.2
			c-0.5,0-1,0.2-1.5,0.3c-0.4,0.1-0.8,0.2-1.3,0.3c-0.6,0.1-1.2-0.1-1.7-0.2c-0.3-0.1-1-0.5-1.3-0.3c0.1-0.1,0,0,0,0
			c-0.1,0-0.1,0-0.2,0c-0.4,0.1-0.9,0.1-1.3,0.1c-1.5,0.1-2.9,0.2-4.4,0.3c-1.2,0.1-2.5,0.2-3.7,0.3c-0.8,0.1-1.6,0.3-2.3,0.5
			c-1.4,0.3-2.7,0.7-4.1,1C9.8,23.9,8.4,24,8.2,25c-0.1,0.5,0.2,0.7,0.7,0.8c1.1,0.1,2.3-0.1,3.5-0.2c1.5-0.2,3-0.4,4.5-0.5
			c0.5-0.1,1-0.1,1.5-0.2c1-0.1,2,0.1,3.1,0.2c0.6,0.1,1.3,0.1,1.9,0.2c0.4,0,0.9,0.2,1.2,0.5c0.6,0.6,0.6,1.7,0.7,2.5
			c0.1,1.4,0.1,2.8,0.2,4.2c0.1,1.6,0.1,3.2,0.3,4.8c0.1,1.2,0.3,2.5,0.4,3.7c0.1,1.4,0.2,2.8,0.4,4.2c0.1,0.7,0.2,1.4,0.3,2.1
			c0.1,0.7,0,1.4,0,2.2c0,1.4,0,2.8,0,4.2c0.1,1.3,0.3,2.7,0.4,4c0.1,1.1,0.1,2.3-0.6,3.3c-0.5,0.7-0.3,1.5,0.6,1.8
			c0.8,0.2,1.9,0,2.2-0.9c0.2-0.4,0.2-0.9,0.1-1.4c-0.1-0.7-0.1-1.3-0.1-2c0.1-1.4,0.4-2.8,0.6-4.2c0.2-1.4,0.3-2.7,0.3-4.1
			c0-1.2,0.3-2.4,0.3-3.5c0.1-1.6,0.2-3.1,0.2-4.7c0-0.7,0.1-1.5,0.1-2.2c0-0.4-0.1-1.1,0.3-1.2c-0.1,0-0.2,0-0.3,0
			c0.3,0.1,0.6,0.1,0.9,0.1c0.7,0,1.4,0.1,2,0.1c1.8,0.1,3.6,0.2,5.4,0.3c0.8,0,1.7,0.1,2.5,0.1c1.2,0,2.3-0.1,3.5-0.2
			c1.1-0.1,2.1,0,3.2,0.2c1.3,0.3,2.5,0.9,3.7,1.3c0.9,0.3,1.9,0.2,2.4-0.7C55.3,38.9,54.3,37.9,53.6,37.7c-0.4-0.1-0.6,0.5-0.2,0.7
			c0.3,0.1,0.6,0.4,0.8,0.7c0.2,0.3-0.2,0.6-0.5,0.7c-0.5,0.2-1.1,0-1.5-0.2c-0.6-0.3-1.2-0.5-1.8-0.7c-1.1-0.4-2.1-0.7-3.3-0.8
			c-1.1-0.1-2.3,0.1-3.4,0.1c-1.8,0.1-3.7-0.1-5.5-0.2c-1.7-0.1-3.4-0.2-5.2-0.3c-0.5,0-1-0.1-1.5-0.1c0,0-0.1,0-0.2,0
			c0,0-0.1,0,0,0c-0.1,0-0.1,0-0.2,0c-0.4,0.1-0.7,0.6-0.7,1c-0.1,1.1-0.1,2.2-0.1,3.3c-0.1,1.5-0.1,3.1-0.2,4.6
			c-0.1,1.3-0.3,2.5-0.4,3.7c0,1.4-0.2,2.8-0.4,4.2c-0.2,1.3-0.5,2.7-0.5,4c0,0.6,0.1,1.2,0.1,1.8c0,0.5,0,1.1-0.4,1.4
			c-0.4,0.2-1,0.2-1.3-0.1c-0.3-0.2,0.3-0.9,0.4-1.1c0.5-1,0.5-2.2,0.4-3.3c-0.2-1.3-0.4-2.7-0.4-4c-0.1-1.4-0.1-2.8,0-4.2
			c0-0.7,0.1-1.3,0-2c0-0.7-0.2-1.4-0.3-2.1c-0.2-1.4-0.3-2.9-0.4-4.3c-0.2-1.9-0.4-3.8-0.5-5.8c-0.1-1.7-0.2-3.4-0.2-5.1
			c0-0.6,0-1.1-0.1-1.7c-0.1-0.9-0.1-1.8-0.6-2.6c-0.5-0.7-1.3-1-2.1-1.1c-1.4-0.1-2.8-0.3-4.2-0.3c-1.1,0-2.3,0.2-3.4,0.3
			c-1.5,0.2-3,0.4-4.5,0.5C10.5,25,9.9,25,9.3,25.1c-0.1,0-0.4,0-0.5,0c-0.1,0-0.1,0-0.2,0c0.1,0,0,0,0.1,0c0.1,0.1,0.1,0.1,0.1-0.1
			c0.1-0.1,0.3-0.2,0.4-0.2c0.3-0.1,0.6-0.2,0.9-0.2c0.7-0.2,1.4-0.4,2.1-0.6c1.4-0.4,2.7-0.7,4.1-1c0.7-0.1,1.4-0.2,2.1-0.2
			c1.2-0.1,2.3-0.2,3.5-0.2c1.1-0.1,2.2-0.2,3.3-0.2c0.3,0,0.7-0.1,1-0.1c0.2,0,0.4,0,0.6-0.1c-0.1,0-0.2,0-0.3,0
			c1,0.3,2.1,0.7,3.1,0.6c0.4-0.1,0.9-0.2,1.3-0.3c0.2,0,0.4-0.1,0.5-0.2c0.1,0,0.3-0.1,0.3-0.1c1.4-0.2,2.8-0.1,4.3-0.2
			c0.8,0,1.6-0.1,2.5-0.1c0.4,0,0.9-0.1,1.3-0.1c1.5,0.1,3,0.3,4.4,0.5c0.9,0.1,1.7,0.2,2.6,0.4c0.2,0,0.4,0.1,0.6,0.1
			c0.1,0,0.2,0,0.3,0.1c0.2,0.1,0,0,0-0.1c0-0.1,0.1-0.1,0.1-0.1c-0.1,0-0.1,0-0.2,0.1c-1,0.2-2,0.3-3,0.4c-3,0.3-6.1,0.5-9.1,0.9
			c-0.5,0.1-1,0.1-1.5,0.2c-0.9,0.2-1.5,0.7-1.8,1.6c-0.2,0.6-0.2,1.2-0.3,1.8c-0.1,0.7-0.2,1.4-0.2,2.1c0,1.4,0.3,2.8,0.5,4.1
			c0,0.1,0.1,0.2,0.2,0.2c0.3,0.1,0.6,0.1,0.9,0.1c0.6,0.1,1.3,0.1,1.9,0.2c1.1,0.1,2.2,0.2,3.3,0.3c1.1,0.1,2.1,0.3,3.2,0.5
			c1.6,0.3,3.3,0.7,4.9,1.1c0.8,0.2,1.6,0.4,2.3,0.7c0.6,0.3,1.1,0.6,1.8,0.8c0.8,0.3,1.6,0.4,2.4,0.6C53.8,38.5,54,37.8,53.6,37.7
			L53.6,37.7z M53.6,37.7"/>
		<path class="st2" d="M29.5,19.6c-0.9,0-1.8-0.3-2.5-0.8c-1.9-1.3-2.6-3.6-1.7-5.7c0.7-1.7,2.5-2.9,4.3-2.9c0.3,0,0.6,0,0.9,0.1
			c2.2,0.5,3.7,2.3,3.8,4.6c0,0,0,0.1,0,0.1c0,1.2-0.5,2.4-1.3,3.2C32,19.1,30.8,19.6,29.5,19.6C29.5,19.6,29.5,19.6,29.5,19.6z
			 M29.6,12.2c-0.7,0-1.4,0.3-1.9,0.8c-0.5,0.5-0.8,1.2-0.8,1.9c0,1.5,1.3,2.8,2.7,2.8c0,0,0,0,0,0c1.5,0,2.7-1.2,2.8-2.7
			C32.3,13.4,31.1,12.2,29.6,12.2L29.6,12.2z"/>
		<path class="st2" d="M32.9,14.9c0,1.9-1.5,3.3-3.4,3.4c-1.9,0-3.3-1.6-3.4-3.4c0-1.9,1.6-3.3,3.4-3.4
			C31.4,11.5,32.9,13.1,32.9,14.9c0,0.4,0.7,0.4,0.7,0c0-1.9-1.4-3.6-3.3-4c-1.9-0.4-3.8,0.7-4.5,2.4c-0.7,1.8-0.1,3.8,1.5,4.9
			c1.6,1.1,3.8,0.8,5.1-0.6c0.7-0.7,1.1-1.8,1.1-2.8C33.6,14.5,32.9,14.5,32.9,14.9L32.9,14.9z M32.9,14.9"/>
	</g>
</g>
</svg>
