<?xml version="1.0" encoding="utf-8"?>
<!-- Generator: Adobe Illustrator 19.0.1, SVG Export Plug-In . SVG Version: 6.00 Build 0)  -->
<svg version="1.1" xmlns="http://www.w3.org/2000/svg" xmlns:xlink="http://www.w3.org/1999/xlink" x="0px" y="0px"
	 viewBox="-3.8 3 70.4 70" style="enable-background:new -3.8 3 70.4 70;" xml:space="preserve">
<style type="text/css">
	.st0{display:none;}
	.st1{display:inline;}
	.st2{fill:#FFFFFF;}
</style>
<g id="Слой_2" class="st0">
	<rect x="-50" y="-38.9" class="st1" width="134.5" height="122.5"/>
</g>
<g id="Isolation_Mode">
	<g>
		<path class="st2" d="M31.2,73c-19.3,0-35-15.7-35-35s15.7-35,35-35s35,15.7,35,35S50.5,73,31.2,73z M31.2,4.9
			C13,4.9-1.9,19.8-1.9,38S13,71,31.2,71s33.1-14.8,33.1-33.1S49.4,4.9,31.2,4.9z"/>
	</g>
	<path class="st2" d="M37.2,20.6c-2.3,0-4.5,1-6,2.7c-1.5-1.7-3.7-2.7-6-2.7c-4.4,0-8,3.6-8,8c0,2,1.3,3.6,2.2,4.8
		c1.3,1.7,2.9,3.3,4.5,5c1.8,1.8,3.8,3.9,5.8,6.4c-1,1.4-1.8,2.4-2.2,3c-0.6,0.9-0.9,1.8-0.9,2.7c0,2.5,2.1,4.5,4.6,4.5c0,0,0,0,0,0
		c1.2,0,2.4-0.5,3.2-1.3c0.9-0.9,1.3-2,1.3-3.2c0-0.9-0.3-1.8-0.9-2.7c-0.3-0.5-1.5-2.1-2.2-3c2-2.5,4.1-4.5,6.1-6.4
		c1.8-1.7,3.5-3.4,4.8-5c1.1-1.4,1.6-3.1,1.6-4.8C45.2,24.2,41.6,20.6,37.2,20.6z M33.4,50.6c0,0.6-0.2,1.1-0.6,1.5
		c-0.4,0.4-1,0.6-1.5,0.6c0,0,0,0,0,0c0,0,0,0,0,0c-1.2,0-2.2-1-2.2-2.2c0-0.4,0.2-0.9,0.5-1.4c0.4-0.6,0.9-1.3,1.7-2.4
		c0.7,1,1.5,2.1,1.7,2.4C33.2,49.7,33.4,50.2,33.4,50.6z M41.7,32.1c-1.2,1.5-2.8,3.1-4.5,4.7c-1.9,1.8-4,3.8-5.9,6.2
		c-1.9-2.4-3.9-4.3-5.6-6.1c-1.6-1.7-3.2-3.2-4.3-4.8c-0.8-1-1.7-2.2-1.7-3.4c0-3.1,2.5-5.7,5.7-5.7c2.1,0,4,1.1,4.9,3
		c0.2,0.4,0.6,0.6,1,0.6c0.4,0,0.8-0.2,1-0.6c1-1.8,2.9-3,4.9-3c3.1,0,5.7,2.5,5.7,5.7C42.8,29.9,42.4,31.1,41.7,32.1z"/>
</g>
</svg>
