<?xml version="1.0" encoding="utf-8"?>
<!-- Generator: Adobe Illustrator 19.0.1, SVG Export Plug-In . SVG Version: 6.00 Build 0)  -->
<svg version="1.1" xmlns="http://www.w3.org/2000/svg" xmlns:xlink="http://www.w3.org/1999/xlink" x="0px" y="0px"
	 viewBox="-3.4 1.7 70 70" style="enable-background:new -3.4 1.7 70 70;" xml:space="preserve">
<style type="text/css">
	.st0{display:none;}
	.st1{display:inline;}
	.st2{fill:#FFFFFF;}
</style>
<g id="Слой_2" class="st0">
	<rect x="-50" y="-38.9" class="st1" width="134.5" height="122.5"/>
</g>
<g id="Isolation_Mode">
	<g>
		<path class="st2" d="M31.6,71.7c-19.3,0-35-15.7-35-35s15.7-35,35-35s35,15.7,35,35S50.9,71.7,31.6,71.7z M31.6,3.6
			C13.4,3.6-1.5,18.5-1.5,36.7s14.9,33,33.1,33s33.1-14.8,33.1-33.1S49.8,3.6,31.6,3.6z"/>
	</g>
	<g>
		<path class="st2" d="M31.6,53.7c-2.7,0-5.4-0.7-7.8-1.9l-7.8,1.8c-0.1,0-0.2,0-0.2,0c-0.3,0-0.6-0.1-0.8-0.3
			c-0.3-0.3-0.4-0.6-0.3-1l1.8-7.8c-1.2-2.4-1.9-5.1-1.9-7.8c0-4.5,1.8-8.8,5-12c3.2-3.2,7.5-5,12-5c4.5,0,8.8,1.8,12,5
			c3.2,3.2,5,7.5,5,12s-1.8,8.8-5,12C40.4,51.9,36.1,53.7,31.6,53.7z M23.9,49.6c0.2,0,0.4,0,0.5,0.1c2.2,1.2,4.6,1.8,7.1,1.8
			c8.2,0,14.9-6.7,14.9-14.9c0-8.2-6.7-14.9-14.9-14.9s-14.9,6.7-14.9,14.9c0,2.5,0.6,5,1.8,7.1c0.1,0.2,0.2,0.5,0.1,0.7l-1.5,6.6
			l6.6-1.5C23.8,49.6,23.8,49.6,23.9,49.6z"/>
		<path class="st2" d="M43.3,25c-3.1-3.1-7.3-4.9-11.7-4.9c-4.4,0-8.6,1.7-11.7,4.9c-3.1,3.1-4.9,7.3-4.9,11.7
			c0,2.7,0.7,5.4,1.9,7.7l-1.8,8c-0.1,0.2,0,0.5,0.2,0.6c0.2,0.2,0.4,0.2,0.6,0.2l8-1.8c2.4,1.3,5,1.9,7.7,1.9
			c4.4,0,8.6-1.7,11.7-4.9c3.1-3.1,4.9-7.3,4.9-11.7S46.4,28.1,43.3,25L43.3,25z M31.6,52c-2.6,0-5.1-0.6-7.3-1.9
			C24.1,50,24,50,23.9,50c0,0-0.1,0-0.1,0l-7.2,1.6l1.6-7.2c0-0.2,0-0.3-0.1-0.5c-1.2-2.2-1.9-4.8-1.9-7.3c0-8.4,6.9-15.3,15.3-15.3
			c8.4,0,15.3,6.9,15.3,15.3C46.8,45.1,40,52,31.6,52L31.6,52z M31.6,52"/>
		<path class="st2" d="M22.9,43.6c-0.4,0-0.8-0.2-0.9-0.6c-0.2-0.4-0.1-0.8,0.2-1.1l4.3-4.3h-3.6c-0.6,0-1-0.5-1-1c0-0.6,0.5-1,1-1
			h6c0.4,0,0.8,0.2,0.9,0.6c0.2,0.4,0.1,0.8-0.2,1.1l-4.3,4.3h3.6c0.6,0,1,0.5,1,1c0,0.6-0.5,1-1,1H22.9z"/>
		<path class="st2" d="M28.9,42h-4.6l5-5c0.2-0.2,0.2-0.4,0.1-0.7c-0.1-0.2-0.3-0.4-0.6-0.4h-6c-0.3,0-0.6,0.3-0.6,0.6
			c0,0.3,0.3,0.6,0.6,0.6h4.6l-5,5c-0.2,0.2-0.2,0.4-0.1,0.7c0.1,0.2,0.3,0.4,0.6,0.4h6c0.3,0,0.6-0.3,0.6-0.6
			C29.5,42.3,29.2,42,28.9,42L28.9,42z M28.9,42"/>
		<path class="st2" d="M32.3,39.8c-0.4,0-0.8-0.3-1-0.6c-0.2-0.4-0.1-0.8,0.2-1.1l6.1-6.1h-5.3c-0.6,0-1-0.5-1-1c0-0.6,0.5-1,1-1
			h7.9c0.4,0,0.8,0.3,1,0.6c0.2,0.4,0.1,0.8-0.2,1.1l-6.1,6.1h5.3c0.6,0,1,0.5,1,1s-0.5,1-1,1H32.3z"/>
		<path class="st2" d="M40.1,38.1h-6.3l6.8-6.8c0.2-0.2,0.2-0.5,0.1-0.7c-0.1-0.2-0.3-0.4-0.6-0.4h-7.9c-0.4,0-0.6,0.3-0.6,0.6
			c0,0.4,0.3,0.6,0.6,0.6h6.3l-6.8,6.8c-0.2,0.2-0.2,0.5-0.1,0.7c0.1,0.2,0.3,0.4,0.6,0.4h7.9c0.4,0,0.6-0.3,0.6-0.6
			C40.8,38.4,40.5,38.1,40.1,38.1L40.1,38.1z M40.1,38.1"/>
		<path class="st2" d="M36.5,48c-0.3,0-0.6-0.2-0.7-0.5c-0.2-0.4,0-0.9,0.4-1.1c1.7-0.8,3-2.2,3.9-3.8c0.1-0.3,0.4-0.4,0.7-0.4
			c0.1,0,0.3,0,0.4,0.1c0.2,0.1,0.3,0.3,0.4,0.5c0.1,0.2,0,0.4-0.1,0.6c-1.1,1.9-2.7,3.5-4.6,4.5C36.8,48,36.6,48,36.5,48z"/>
	</g>
</g>
</svg>
