<?xml version="1.0" encoding="utf-8"?>
<!-- Generator: Adobe Illustrator 19.0.1, SVG Export Plug-In . SVG Version: 6.00 Build 0)  -->
<svg version="1.1" xmlns="http://www.w3.org/2000/svg" xmlns:xlink="http://www.w3.org/1999/xlink" x="0px" y="0px"
	 viewBox="-3.5 1.5 70 70" style="enable-background:new -3.5 1.5 70 70;" xml:space="preserve">
<style type="text/css">
	.st0{display:none;}
	.st1{display:inline;}
	.st2{fill:#FFFFFF;}
</style>
<g id="Слой_2" class="st0">
	<rect x="-29.8" y="-10.7" class="st1" width="114.3" height="94.3"/>
</g>
<g id="Isolation_Mode">
	<g>
		<path class="st2" d="M31.5,71.5c-19.3,0-35-15.7-35-35s15.7-35,35-35s35,15.7,35,35S50.8,71.5,31.5,71.5z M31.5,3.4
			C13.3,3.4-1.6,18.3-1.6,36.5s14.9,33,33.1,33s33.1-14.8,33.1-33.1S49.7,3.4,31.5,3.4z"/>
	</g>
	<g>
		<g>
			<path class="st2" d="M50.7,33c0,1.1-0.2,2.2-0.5,3.3c-1.7,7.5-16,16.6-16.6,16.9c-0.2,0.1-0.4,0.2-0.6,0.2
				c-0.2,0-0.4-0.1-0.6-0.2c-0.2-0.1-4.2-2.7-8.3-6.2c-0.5-0.4-0.5-1.2-0.1-1.6c0.4-0.5,1.1-0.5,1.6-0.1c3,2.6,6.1,4.7,7.4,5.6
				c4.3-2.8,13.8-9.9,15-15.2c0.3-0.9,0.4-1.8,0.4-2.6c0-3-1.6-5.7-4.2-7.2c-3.3-1.9-7.8-1-10.3,2c-0.4,0.5-1.3,0.5-1.8,0
				c-2.5-3-6.9-3.8-10.3-2c-2.6,1.4-4.3,4.2-4.3,7.2c0,0.9,0.1,1.7,0.4,2.5c0.2,0.8,0.5,1.5,0.9,2.3h6.8l2.3-5.4
				c0.2-0.5,0.7-0.7,1.2-0.7c0.5,0,0.9,0.4,1,0.9l1.7,7.3l2.2-3.6c0.2-0.3,0.6-0.6,1-0.6h4.2c0.6,0,1.2,0.5,1.2,1.2
				c0,0.6-0.5,1.2-1.2,1.2h-3.6l-3.3,5.5c-0.2,0.3-0.6,0.6-1,0.6c-0.1,0-0.1,0-0.2,0c-0.5-0.1-0.8-0.4-0.9-0.9l-1.6-6.6l-1.2,2.9
				c-0.2,0.4-0.6,0.7-1.1,0.7H12.8c-0.6,0-1.2-0.5-1.2-1.2c0-0.6,0.5-1.2,1.2-1.2h3.4c-0.2-0.6-0.4-1.1-0.6-1.7
				c-0.3-0.9-0.5-2-0.5-3.1c0-3.8,2.1-7.4,5.5-9.2c3.9-2.2,9.1-1.5,12.3,1.6c3.2-3,8.4-3.7,12.3-1.6C48.6,25.6,50.7,29.1,50.7,33
				L50.7,33z M50.7,33"/>
		</g>
	</g>
</g>
</svg>
