<?xml version="1.0" encoding="utf-8"?>
<!-- Generator: Adobe Illustrator 19.0.1, SVG Export Plug-In . SVG Version: 6.00 Build 0)  -->
<svg version="1.1" xmlns="http://www.w3.org/2000/svg" xmlns:xlink="http://www.w3.org/1999/xlink" x="0px" y="0px"
	 viewBox="-3.4 1.7 70 70" style="enable-background:new -3.4 1.7 70 70;" xml:space="preserve">
<style type="text/css">
	.st0{display:none;}
	.st1{display:inline;}
	.st2{fill:#FFFFFF;}
</style>
<g id="Слой_2" class="st0">
	<rect x="-50" y="-38.9" class="st1" width="134.5" height="122.5"/>
</g>
<g id="Isolation_Mode">
	<g>
		<path class="st2" d="M31.6,71.7c-19.3,0-35-15.7-35-35s15.7-35,35-35s35,15.7,35,35S50.9,71.7,31.6,71.7z M31.6,3.6
			C13.4,3.6-1.5,18.5-1.5,36.7s14.9,33,33.1,33s33.1-14.8,33.1-33.1S49.8,3.6,31.6,3.6z"/>
	</g>
	<g>
		<path class="st2" d="M24.2,54.3c-0.5-1.2-1.3-3.3-2-5.7c-1-3.3-1.6-6.1-1.6-8.1l9.8,6.7v7.2h2.4v-7.2l9.8-6.7
			c-0.1,2.1-0.6,4.9-1.6,8.1c-0.7,2.4-1.6,4.5-2,5.7h2.6c1.4-3.5,4.2-11.5,3.3-16.2V38l0,0c-0.7-3.4-1.8-5.3-2.7-6.9
			c-0.6-1-1-1.9-1.2-2.8c-0.3-1.7,0.6-6.2,1.4-9.2h-2.5c-0.2,1-0.5,1.9-0.6,2.8c-0.7,3.2-0.9,5.5-0.6,6.8c0.3,1.4,0.8,2.4,1.5,3.6
			c0.7,1.2,1.5,2.6,2.1,4.8H21c0.6-2.2,1.4-3.6,2.1-4.8c0.7-1.2,1.2-2.2,1.5-3.6c0.2-1.3,0-3.6-0.6-6.8c-0.2-0.9-0.4-1.8-0.6-2.8
			h-2.5c0.8,3,1.7,7.5,1.4,9.2c-0.2,1-0.6,1.8-1.2,2.8c-0.9,1.6-2,3.5-2.7,6.9l0,0v0.1c-0.9,4.6,1.9,12.7,3.3,16.2H24.2z M39.7,39.5
			L31.6,45l-8.2-5.5H39.7z"/>
		<path class="st2" d="M16.8,31.4c-0.3,0-0.6-0.1-0.8-0.4c-0.2-0.2-0.4-0.5-0.4-0.8c0-0.3,0.1-0.6,0.4-0.8l0.4-0.4h-3.6
			c-0.7,0-1.2-0.5-1.2-1.2c0-0.7,0.5-1.2,1.2-1.2h3.6L16,26.1c-0.2-0.2-0.4-0.5-0.4-0.8c0-0.3,0.1-0.6,0.4-0.8
			c0.2-0.2,0.5-0.4,0.8-0.4c0.3,0,0.6,0.1,0.8,0.4l2.5,2.5c0.4,0.4,0.5,1,0.2,1.5c0,0.1-0.1,0.1-0.2,0.2L17.7,31
			C17.5,31.2,17.2,31.4,16.8,31.4z"/>
		<path class="st2" d="M20,28.1c0.2-0.3,0.2-0.7-0.1-1l-2.5-2.5c-0.3-0.3-0.8-0.3-1.2,0c-0.3,0.3-0.3,0.8,0,1.2l1.1,1.1h-4.6
			c-0.5,0-0.8,0.4-0.8,0.8c0,0.5,0.4,0.8,0.8,0.8h4.6l-1.1,1.1c-0.3,0.3-0.3,0.8,0,1.2c0.2,0.2,0.4,0.2,0.6,0.2
			c0.2,0,0.4-0.1,0.6-0.2l2.5-2.5C19.9,28.2,19.9,28.2,20,28.1L20,28.1z M20,28.1"/>
		<path class="st2" d="M46.3,31.4c-0.3,0-0.6-0.1-0.8-0.4L43,28.5c-0.1-0.1-0.1-0.1-0.2-0.2c-0.3-0.5-0.2-1.1,0.2-1.5l2.5-2.5
			c0.2-0.2,0.5-0.4,0.8-0.4c0.3,0,0.6,0.1,0.8,0.4c0.2,0.2,0.4,0.5,0.4,0.8c0,0.3-0.1,0.6-0.4,0.8l-0.4,0.4h3.6
			c0.7,0,1.2,0.5,1.2,1.2c0,0.7-0.5,1.2-1.2,1.2h-3.6l0.4,0.4c0.2,0.2,0.4,0.5,0.4,0.8c0,0.3-0.1,0.6-0.4,0.8
			C46.9,31.2,46.6,31.4,46.3,31.4z"/>
		<path class="st2" d="M50.4,26.9h-4.6l1.1-1.1c0.3-0.3,0.3-0.8,0-1.2c-0.3-0.3-0.8-0.3-1.2,0l-2.5,2.5c-0.3,0.3-0.3,0.7-0.1,1
			c0,0,0.1,0.1,0.1,0.1l2.5,2.5c0.2,0.2,0.4,0.2,0.6,0.2c0.2,0,0.4-0.1,0.6-0.2c0.3-0.3,0.3-0.8,0-1.2l-1.1-1.1h4.6
			c0.5,0,0.8-0.4,0.8-0.8C51.2,27.2,50.8,26.9,50.4,26.9L50.4,26.9z M50.4,26.9"/>
	</g>
</g>
</svg>
