<?xml version="1.0" encoding="utf-8"?>
<!-- Generator: Adobe Illustrator 19.0.1, SVG Export Plug-In . SVG Version: 6.00 Build 0)  -->
<svg version="1.1" xmlns="http://www.w3.org/2000/svg" xmlns:xlink="http://www.w3.org/1999/xlink" x="0px" y="0px"
	 viewBox="-3.8 3 70.4 70" style="enable-background:new -3.8 3 70.4 70;" xml:space="preserve">
<style type="text/css">
	.st0{display:none;}
	.st1{display:inline;}
	.st2{fill:#FFFFFF;}
</style>
<g id="Слой_2" class="st0">
	<rect x="-50" y="-38.9" class="st1" width="134.5" height="122.5"/>
</g>
<g id="Isolation_Mode">
	<g>
		<path class="st2" d="M31.2,73c-19.3,0-35-15.7-35-35s15.7-35,35-35s35,15.7,35,35S50.5,73,31.2,73z M31.2,4.9
			C13,4.9-1.9,19.8-1.9,38S13,71,31.2,71s33.1-14.8,33.1-33.1S49.4,4.9,31.2,4.9z"/>
	</g>
	<g>
		<g>
			<path class="st2" d="M27.1,54.6c-0.8,0-1.5-0.3-2.4-0.8c-0.3-0.2-0.5-0.5-0.4-0.9c0-0.3,0.2-0.6,0.5-0.8c0.2-0.1,0.3-0.2,0.5-0.2
				c0.5-0.3,0.9-0.5,1.3-0.9c0.4-0.5,0.7-1.1,1-1.7c0.4-1.2,0.7-2.6,0.7-4.3c0-0.6,0-1.2,0-1.8c0-0.2,0-0.5,0-0.7c0-0.3,0-0.6,0-0.9
				c0-0.6,0-1.1,0-1.7c0-0.3,0.1-0.6,0.1-0.9c0.1-0.5,0.1-1,0.1-1.5c0-0.9-0.1-1.6-0.2-2.3c-0.1-0.4-0.2-0.8-0.3-1.2
				c-0.3-1-0.6-2.1-0.5-3.2c0.1-0.9,0.2-1.9-0.3-2.7c-0.3-0.5-0.7-1-1.1-1.2c-0.4-0.2-0.8-0.3-1.4-0.4c-0.1,0-0.2,0-0.4,0l-0.3,0
				c-0.6-0.1-1.3-0.2-2-0.3c-0.3-0.1-0.6-0.2-0.9-0.2c-0.4-0.1-0.8-0.2-1.1-0.3c-1-0.2-2.1-0.2-3.2-0.2c-0.4,0-0.8,0-1.2,0
				c-0.4,0-0.8-0.1-1.1-0.1c-0.3,0-0.6-0.1-1-0.1c-0.1,0-0.2,0-0.2,0c-0.4,0-0.7,0.1-0.8,0.3c-0.3,0.3-0.6,0.6-1.1,0.6
				c-0.2,0-0.5-0.1-0.7-0.2c-0.2-0.1-0.3-0.3-0.5-0.5H7.7c-0.5,0-0.9-0.3-0.9-0.8c0,0,0,0,0-0.1c0-0.2-0.1-0.7,0.2-1.1
				c0,0,0.1-0.1,0.1-0.1c0.2-0.2,0.4-0.4,0.7-0.5c2.7-0.8,5.7-1.2,8.8-1.2c0.1,0,0.2,0,0.3,0c1.5,0,3,0.1,4.5,0.1
				c1.4,0,2.9,0.1,4.3,0.1c0.3,0,0.6,0,1,0c0.4,0,0.7,0,1.1,0c0.7,0,1.6,0,2.5-0.2l0.2,0c1-0.2,2.1-0.3,3.2-0.3c0.4,0,0.8,0,1.2,0.1
				c1.5,0.2,2.8,0.5,4.3,0.9c0.4,0.1,0.8,0.2,1.1,0.3c1,0.3,2,0.5,3,0.9c2.1,0.8,3.7,2.3,4.5,4.2c0.4,1,0.7,1.9,0.9,2.9
				c0.1,0.3,0.1,0.5,0.2,0.8c0.4,1.5,0.8,3,1.2,4.4c0.1,0.2,0.1,0.4,0.2,0.7c0.1,0.5,0.3,1.1,0.5,1.6c0.1,0.4,0.3,0.7,0.5,1
				c0.1,0.2,0.2,0.4,0.3,0.6c0.6,1.1,0.9,2.3,1.1,3.5c0.1,0.2,0.1,0.5,0.2,0.7c0.3,1.1,0.5,2.1,0.8,3.2c0.1,0.4,0.2,0.8,0.3,1.2
				c0.1,0.2,0.1,0.4,0.2,0.7c0.2,0.9,0.4,1.8,1,2.4c0,0,0,0,0,0c0.6,0.7,0.5,1.3,0.3,1.7c-0.3,0.7-1.2,0.8-1.6,0.8l0,0
				c-0.1,0-0.2,0-0.2,0c-0.2,0-0.5,0-0.7,0h0c-0.9,0-1.5-0.3-1.8-1c-0.2-0.4-0.2-0.8-0.3-1.2c0-0.1,0-0.2,0-0.3
				c-0.1-0.6-0.2-1.2-0.4-1.8c-0.3-1-0.7-2.1-1.3-3.4c-0.7-1.4-1.3-2.9-2-4.3c-0.4-1-0.9-1.9-1.4-2.9c-0.5-1.2-1.1-2.4-1.7-3.7
				c-0.3-0.6-0.6-1.2-1-1.8c-1.1,1.8-2.3,3.7-3.5,5.6c-0.3,0.5-0.6,0.9-0.8,1.4c-1.1,1.9-2.3,3.8-3.6,5.7c-0.7,1-1.5,2-2.5,3.1
				c-0.2,0.2-0.3,0.3-0.5,0.5c-0.3,0.3-0.6,0.6-0.8,0.9c-0.2,0.3-0.2,0.5-0.2,0.9c0,0.1,0,0.2,0,0.3c0,0.3-0.2,1.2-1,1.6
				c-0.4,0.2-0.7,0.3-1.1,0.4c-0.2,0.1-0.4,0.1-0.6,0.2C28,54.5,27.5,54.6,27.1,54.6z M19.1,23.6c0.2,0,0.4,0,0.6,0.1
				c0.6,0.1,1.2,0.2,1.7,0.4c0.3,0.1,0.5,0.2,0.8,0.2c0.7,0.2,1.4,0.3,2.1,0.4l0.5,0.1c0.8,0.1,1.6,0.2,2.3,0.8
				c1.5,1.1,2.3,3,2.1,4.9c-0.1,0.7-0.1,1.3,0.1,2c0.1,0.3,0.2,0.6,0.3,0.9c0.1,0.4,0.2,0.7,0.3,1.1c0.4,1.5,0.5,3,0.3,4.4
				c0,0.2-0.1,0.3-0.1,0.5c0,0.2-0.1,0.5-0.1,0.7c0,0.2,0,0.5,0,0.7c0,0.1,0,0.2,0,0.3c0,0.4,0,0.9,0,1.3c0,0.3,0,0.6,0,0.9
				c0,1.4,0,2.9-0.3,4.4c-0.2,1.1-0.5,2.4-1.2,3.6c-0.3,0.5-0.6,0.9-1,1.2c0.2-0.1,0.4-0.1,0.5-0.2c0.2-0.1,0.3-0.1,0.5-0.2
				c0.1,0,0.1,0,0.2,0c0.1,0,0.3-0.1,0.4-0.1c0-0.1,0-0.1,0-0.3c0-0.1,0-0.1,0-0.2c0-0.5,0.1-0.9,0.4-1.4c0.2-0.5,0.6-0.8,0.9-1.2
				c0.1-0.1,0.1-0.1,0.2-0.2c0.4-0.4,0.8-0.9,1.3-1.4c0.8-0.9,1.5-1.9,2.2-2.9c1.2-1.8,2.3-3.6,3.4-5.4c0.2-0.4,0.5-0.8,0.7-1.2
				c1-1.7,2.1-3.5,3.2-5.1c0.3-0.5,0.6-0.9,0.9-1.4c0.2-0.3,0.5-0.5,0.8-0.5c0.3,0,0.7,0.2,0.8,0.5c0.2,0.3,0.4,0.6,0.5,0.9
				c0.4,0.6,0.8,1.2,1.1,1.9c0.4,0.8,0.8,1.6,1.1,2.4c0.1,0.2,0.2,0.5,0.3,0.7c0.3,0.6,0.6,1.3,0.9,1.9c0.7,1.5,1.4,3,2.1,4.5
				l0.2,0.4c0.8,1.8,1.7,3.6,2.2,5.5c0-0.1,0-0.1,0-0.2c-0.2-0.8-0.4-1.6-0.6-2.4c-0.1-0.5-0.3-1.1-0.4-1.7L51.3,45
				c-0.1-0.6-0.3-1.2-0.4-1.8c0-0.2-0.1-0.3-0.1-0.5c-0.1-0.5-0.2-1-0.4-1.5c-0.1-0.3-0.3-0.6-0.5-1c-0.1-0.2-0.2-0.4-0.4-0.6
				c-0.3-0.6-0.5-1.2-0.7-1.8l0-0.1c-0.5-1.7-0.9-3.1-1.3-4.4c-0.1-0.5-0.2-1-0.4-1.4c-0.2-0.8-0.4-1.7-0.7-2.5
				c-0.6-1.9-1.9-3.3-3.5-3.9C42,25.1,41,24.8,40,24.6c-0.3-0.1-0.7-0.2-1.1-0.3l-0.4-0.1c-1.2-0.4-2.5-0.7-3.8-0.9
				c-0.3,0-0.6-0.1-1-0.1c-0.9,0-1.8,0.1-2.8,0.3c-0.2,0-0.3,0-0.5,0.1c-1,0.1-2,0.1-2.7,0.1c-0.3,0-0.7,0-1,0c-0.3,0-0.6,0-0.9,0
				c-1.8,0-3.3,0-4.6-0.1c-0.5,0-1,0-1.4-0.1C19.5,23.6,19.3,23.6,19.1,23.6z M52.8,52.1C52.8,52.1,52.8,52.1,52.8,52.1
				c0.1,0,0.2,0,0.2,0c0.1,0,0.2,0,0.3,0c-0.4-0.7-0.7-1.4-0.8-2.2c0.1,0.4,0.2,0.9,0.2,1.3c0,0.1,0,0.2,0,0.4
				C52.7,51.7,52.7,52,52.8,52.1z"/>
			<path class="st2" d="M54.8,51.8c-0.9-0.9-1-2.2-1.3-3.3c-0.4-1.5-0.7-2.9-1.1-4.4c-0.3-1.4-0.6-2.8-1.3-4.1
				c-0.3-0.6-0.7-1.1-0.9-1.7c-0.3-0.7-0.5-1.5-0.7-2.3c-0.4-1.5-0.9-3-1.2-4.4c-0.3-1.2-0.6-2.5-1.1-3.6c-0.8-1.9-2.3-3.2-4.2-3.9
				c-1.3-0.5-2.7-0.8-4.1-1.2c-1.4-0.4-2.8-0.7-4.2-0.9c-1.5-0.2-2.9,0.1-4.4,0.3c-1.5,0.2-3.1,0.1-4.7,0.1c-3.1,0-6.1-0.2-9.1-0.2
				c-2.9,0-5.9,0.4-8.7,1.2c-0.2,0.1-0.4,0.3-0.6,0.5c-0.2,0.2-0.1,0.4-0.1,0.6c0,0.2,0.2,0.3,0.4,0.3h2.9c0.1,0.2,0.2,0.4,0.4,0.5
				c0.5,0.3,0.7,0.1,1.1-0.2c0.4-0.4,1-0.5,1.5-0.4c0.7,0,1.4,0.1,2.1,0.2c1.5,0.1,3,0,4.4,0.3c0.7,0.1,1.3,0.4,2,0.5
				c0.7,0.2,1.5,0.3,2.2,0.4c0.7,0.1,1.4,0.1,2,0.5c0.5,0.4,1,0.9,1.3,1.4c0.5,0.9,0.5,2,0.4,3c-0.2,1.4,0.5,2.8,0.8,4.2
				c0.2,0.8,0.2,1.6,0.2,2.5c0,0.8-0.2,1.6-0.3,2.4c-0.1,0.8,0,1.7,0,2.5c0,0.8,0,1.7,0,2.5c0,1.5-0.2,3-0.8,4.5
				c-0.2,0.7-0.6,1.3-1.1,1.9c-0.5,0.6-1.2,0.9-1.9,1.2c-0.3,0.1-0.2,0.5,0,0.6c1,0.7,2,0.9,3.2,0.5c0.6-0.2,1.1-0.3,1.7-0.6
				c0.4-0.2,0.6-0.7,0.7-1.1c0.1-0.5,0.1-1,0.3-1.4c0.3-0.6,0.9-1,1.4-1.5c0.9-1,1.7-2,2.4-3c1.6-2.3,3-4.7,4.4-7
				c1.3-2.2,2.6-4.3,4-6.4c0.5,0.9,1.1,1.7,1.5,2.7c0.6,1.2,1.2,2.4,1.7,3.7c1.1,2.4,2.3,4.8,3.4,7.2c0.5,1.1,1,2.3,1.3,3.5
				c0.2,0.6,0.3,1.2,0.4,1.9c0.1,0.5,0.1,0.9,0.3,1.4c0.4,0.9,1.5,0.6,2.2,0.6c0.4,0,1-0.1,1.2-0.5C55.2,52.5,55.1,52.1,54.8,51.8
				L54.8,51.8z M54,52.6c-0.3,0-0.6,0-0.9,0.1c-0.3,0-0.6,0.1-0.8-0.2c-0.2-0.3-0.2-0.9-0.2-1.2c-0.1-0.5-0.2-1.1-0.3-1.6
				c-0.5-2-1.4-3.9-2.3-5.8c-1-2.1-2-4.2-3-6.3c-0.5-1-1-2.1-1.5-3.1c-0.5-0.9-1.1-1.8-1.6-2.7c-0.1-0.2-0.5-0.2-0.6,0
				c-1.3,2.2-2.7,4.3-4,6.5c-1.3,2.2-2.7,4.4-4.1,6.6c-0.7,1-1.4,2-2.2,3c-0.4,0.5-0.8,0.9-1.3,1.4c-0.4,0.4-0.8,0.8-1,1.3
				c-0.2,0.4-0.3,0.8-0.3,1.2c0,0.2,0,0.5-0.1,0.7c-0.2,0.3-0.6,0.4-0.9,0.5c-0.6,0.2-1.2,0.4-1.7,0.5c-0.4,0-0.7-0.1-1.1-0.3
				c0.3-0.2,0.6-0.3,0.9-0.6c0.5-0.4,0.9-0.9,1.2-1.4c0.6-1,0.9-2.2,1.2-3.4c0.3-1.4,0.3-2.9,0.3-4.3c0-0.7,0-1.4,0-2.1
				c0-0.4,0-0.7,0-1.1c0-0.4,0.1-0.8,0.2-1.2c0.2-1.4,0.1-2.8-0.3-4.2c-0.2-0.7-0.4-1.3-0.6-2c-0.2-0.8-0.2-1.5-0.1-2.2
				c0.2-1.7-0.5-3.4-1.9-4.4c-0.7-0.5-1.4-0.6-2.2-0.7c-0.8-0.1-1.7-0.2-2.5-0.4c-0.8-0.2-1.6-0.5-2.5-0.6C18,24,16.2,24.1,14.5,24
				c-0.7-0.1-1.3-0.2-2,0c-0.3,0.1-0.5,0.2-0.8,0.4c-0.1,0.1-0.2,0.2-0.3,0.3c0,0,0,0,0,0c-0.1,0-0.1-0.1-0.1-0.2
				c0.1-0.2-0.1-0.5-0.4-0.5H8.6c0.4-0.1,0.9-0.2,1.3-0.3c0.7-0.2,1.5-0.3,2.3-0.4c1.5-0.2,3-0.3,4.5-0.3c1.5,0,3,0.1,4.5,0.1
				c1.5,0,3.1,0.1,4.6,0.1c1.5,0,3.1,0.1,4.6-0.1c1.5-0.2,2.9-0.4,4.4-0.3c1.5,0.2,2.9,0.6,4.3,1c1.3,0.4,2.7,0.7,3.9,1.2
				c1.9,0.7,3.2,2.4,3.8,4.2c0.4,1.3,0.7,2.6,1,3.9c0.4,1.5,0.8,3,1.3,4.4c0.2,0.6,0.4,1.2,0.7,1.8c0.3,0.6,0.7,1.1,0.9,1.7
				c0.3,0.6,0.4,1.4,0.6,2.1c0.2,0.7,0.4,1.4,0.5,2.1c0.3,1.4,0.7,2.7,1,4.1c0.3,1.1,0.5,2.2,1.4,3.1C54.5,52.6,54.2,52.6,54,52.6
				L54,52.6z M54,52.6"/>
		</g>
		<path class="st2" d="M32.5,43.5c-0.1,0-0.2,0-0.3-0.1l0,0c0,0,0,0-0.1,0c0,0,0,0,0,0c-0.4-0.2-0.6-0.6-0.5-1
			c0.1-0.3,0.1-0.7,0.2-1c0.1-0.6,0.2-1.2,0.3-1.7c0-0.1,0-0.2,0.1-0.4c0.1-0.4,0.1-0.7,0.1-1c0-0.4,0-0.8,0-1.2
			c0-0.4-0.1-0.9-0.1-1.3c0-0.5-0.1-1-0.1-1.5c0-0.1,0-0.2,0-0.3c-0.1-0.6-0.1-1.4,0.3-2c0.3-0.6,0.9-0.8,1.3-1.1
			c0.1-0.1,0.3-0.1,0.4-0.2c0.1,0,0.1-0.1,0.2-0.1c0.5-0.3,1.1-0.6,1.7-0.7c0.2,0,0.5,0,0.7,0c0.5,0,1,0.1,1.3,0.3
			c0.7,0.5,0.5,1.4,0.4,1.8c0,0,0,0,0,0c-0.6,2.1-1.3,4.1-2,5.9c-0.4,1-0.8,1.9-1.3,2.7c-0.3,0.5-0.7,1-1,1.5
			c-0.2,0.3-0.5,0.7-0.7,1C33.1,43.4,32.8,43.5,32.5,43.5L32.5,43.5z M36.5,31.6c-0.3,0-0.7,0.1-1.1,0.3C35.3,32,35.1,32,35,32.1
			c-0.1,0.1-0.3,0.2-0.4,0.2c-0.1,0.1-0.2,0.1-0.3,0.2c-0.1,0.1-0.3,0.1-0.4,0.2c-0.2,0.1-0.3,0.3-0.2,0.9c0,0.8,0.1,1.5,0.2,2.3
			l0,0.1c0,0.2,0,0.3,0,0.5c0.1,0.6,0.1,1.2,0.1,1.8c0,0.2,0,0.4,0,0.6c0.3-0.5,0.5-1,0.7-1.6C35.4,35.3,36,33.4,36.5,31.6
			C36.5,31.6,36.5,31.6,36.5,31.6z"/>
		<path class="st2" d="M37.5,30.7c-0.4-0.3-1.1-0.3-1.6-0.2c-0.6,0.1-1.2,0.5-1.7,0.8c-0.6,0.3-1.2,0.5-1.5,1.1
			c-0.3,0.6-0.2,1.4-0.1,2c0.1,0.9,0.2,1.9,0.2,2.8c0,0.4,0.1,0.8,0,1.2c0,0.5-0.1,1-0.2,1.4c-0.2,0.9-0.3,1.8-0.5,2.8
			c0,0.2,0,0.3,0.2,0.3c0,0,0.1,0,0.1,0.1c0.1,0,0.3,0,0.3-0.1c0.5-0.8,1.1-1.6,1.7-2.5c0.5-0.8,0.9-1.7,1.3-2.6
			c0.8-1.9,1.4-3.9,2-5.9v0C37.8,31.5,37.9,31,37.5,30.7L37.5,30.7z M35.2,37.4c-0.6,1.5-1.5,2.9-2.4,4.2c0.1-0.4,0.1-0.8,0.2-1.2
			c0.1-0.7,0.3-1.5,0.3-2.3c0-0.7-0.1-1.5-0.1-2.2c-0.1-0.8-0.1-1.6-0.2-2.4c0-0.6,0-1.1,0.5-1.4c0.2-0.1,0.5-0.2,0.7-0.4
			c0.3-0.1,0.5-0.3,0.8-0.4c0.5-0.3,1-0.4,1.6-0.3c0.1,0,0.4,0,0.5,0.1c0.1,0.1-0.1,0.4-0.1,0.5C36.6,33.6,35.9,35.5,35.2,37.4
			L35.2,37.4z M35.2,37.4"/>
		<path class="st2" d="M22.5,34.9c-1.8,0-3.4-1.6-3.4-3.5c0-0.9,0.3-1.8,1-2.4c0.7-0.6,1.6-1,2.5-1l0,0c1.8,0,3.4,1.6,3.4,3.5
			c0,0,0,0,0,0C26,33.3,24.5,34.9,22.5,34.9C22.6,34.9,22.5,34.9,22.5,34.9z M22.6,29.7c-0.5,0-0.9,0.2-1.3,0.5
			c-0.3,0.3-0.5,0.7-0.5,1.2c0,0.9,0.8,1.8,1.7,1.8l0,0c1,0,1.7-0.8,1.7-1.7C24.3,30.5,23.5,29.7,22.6,29.7L22.6,29.7z"/>
	</g>
</g>
</svg>
