<?xml version="1.0" encoding="utf-8"?>
<!-- Generator: Adobe Illustrator 19.0.1, SVG Export Plug-In . SVG Version: 6.00 Build 0)  -->
<svg version="1.1" xmlns="http://www.w3.org/2000/svg" xmlns:xlink="http://www.w3.org/1999/xlink" x="0px" y="0px"
	 viewBox="-3.4 1.8 70 70" style="enable-background:new -3.4 1.8 70 70;" xml:space="preserve">
<style type="text/css">
	.st0{display:none;}
	.st1{display:inline;}
	.st2{fill:#FFFFFF;}
</style>
<g id="Слой_2" class="st0">
	<rect x="-50" y="-38.9" class="st1" width="134.5" height="122.5"/>
</g>
<g id="Isolation_Mode">
	<g>
		<path class="st2" d="M31.6,71.8c-19.3,0-35-15.7-35-35s15.7-35,35-35s35,15.7,35,35S50.9,71.8,31.6,71.8z M31.6,3.7
			C13.4,3.7-1.5,18.6-1.5,36.8s14.9,33,33.1,33S64.7,55,64.7,36.7S49.8,3.7,31.6,3.7z"/>
	</g>
	<g>
		<path class="st2" d="M52.9,36.5l-5.8-5.8c-4.2-4.2-9.7-6.5-15.6-6.5c-5.9,0-11.5,2.3-15.6,6.5l-5.6,5.6c-0.1,0.1-0.2,0.2-0.2,0.4
			c0,0.1,0.1,0.3,0.2,0.4l5.8,5.8c4.2,4.2,9.7,6.5,15.6,6.5c5.9,0,11.5-2.3,15.6-6.5l5.6-5.6c0.1-0.1,0.2-0.2,0.2-0.4
			S53,36.6,52.9,36.5z M17.7,41.1l-4.4-4.4l4.3-4.3c3.7-3.7,8.7-5.8,13.9-5.8c5.3,0,10.2,2,13.9,5.8l4.4,4.4l-4.3,4.3
			c-3.7,3.7-8.7,5.8-13.9,5.8C26.4,46.9,21.4,44.8,17.7,41.1z"/>
		<path class="st2" d="M31,32.1c-2.3,0-4.2,1.9-4.2,4.2c0,0.6,0.5,1,1,1c0.6,0,1-0.5,1-1c0-1.2,0.9-2.1,2.1-2.1c0.6,0,1-0.5,1-1
			C32,32.5,31.6,32.1,31,32.1z"/>
		<path class="st2" d="M31.5,28.4c-4.6,0-8.3,3.7-8.3,8.3c0,4.6,3.7,8.3,8.3,8.3c4.6,0,8.3-3.7,8.3-8.3
			C39.8,32.2,36.1,28.4,31.5,28.4z M31.5,42.8c-3.4,0-6.1-2.7-6.1-6.1c0-3.4,2.7-6.1,6.1-6.1c3.4,0,6.1,2.7,6.1,6.1
			C37.6,40.1,34.9,42.8,31.5,42.8z"/>
	</g>
</g>
</svg>
