<?xml version="1.0" encoding="UTF-8" standalone="no"?>
<svg
   xmlns:dc="http://purl.org/dc/elements/1.1/"
   xmlns:cc="http://creativecommons.org/ns#"
   xmlns:rdf="http://www.w3.org/1999/02/22-rdf-syntax-ns#"
   xmlns:svg="http://www.w3.org/2000/svg"
   xmlns="http://www.w3.org/2000/svg"
   viewBox="0 0 511.82394 310.45554"
   height="310.45554"
   width="511.82394"
   version="1.1"
   id="svg2">
  <metadata
     id="metadata8">
    <rdf:RDF>
      <cc:Work
         rdf:about="">
        <dc:format>image/svg+xml</dc:format>
        <dc:type
           rdf:resource="http://purl.org/dc/dcmitype/StillImage" />
        <dc:title></dc:title>
      </cc:Work>
    </rdf:RDF>
  </metadata>
  <defs
     id="defs6" />
  <path
     id="path4160"
     d="m 21.452649,309.9334 c -8.007,-1.34307 -15.71833,-7.57832 -19.43388,-15.71391 C 0.58396899,291.07785 0.39253899,277.00683 0.14907899,156.79145 -0.15128101,8.4829912 -0.66704101,17.549341 6.192459,9.5355412 c 0.9178,-1.07225 2.00462,-2.49487 3.19006,-3.66229 1.18543,-1.16743 2.60205,-2.01338 4.00263,-3.03713 2.35545,-1.72171 6.03516,-2.11662996 6.03516,-2.11662996 l 232.500001,-0.55283 c 132.06156,-0.31401 234.82915,-0.17281 237.89163,0.32686 6.16868,1.00647996 11.52396,4.05730996 15.59281,8.88302996 6.45109,7.6510798 5.98861,-2.96198 6.28679,144.2709788 0.30036,148.30846 0.68355,139.17582 -6.17595,147.18962 -1.83561,2.14449 -5.53297,5.02031 -8.21637,6.39071 -4.56061,2.32907 -5.988,2.50751 -21.87891,2.73506 -47.10637,0.67455 -449.926391,0.64836 -453.967661,-0.0295 z M 458.92031,283.77607 c 0,-0.24388 -26.66411,-21.12341 -59.25357,-46.39895 -32.58946,-25.27555 -60.10508,-46.89645 -61.14582,-48.04645 -1.08881,-1.20313 -2.08047,-4.11204 -2.33555,-6.85105 -0.35604,-3.82316 0.0203,-5.44207 1.91172,-8.22462 3.08452,-4.53766 8.69406,-6.75437 13.68271,-5.40696 2.41908,0.65337 25.34548,17.8239 68.33295,51.17736 35.58085,27.60675 64.94335,50.19409 65.25,50.19409 0.73882,0 0.45849,-177.890089 -0.32796,-208.118149 l -0.61448,-23.61814 -110.5,76.820559 c -60.775,42.25131 -111.53367,77.29197 -112.79705,77.86814 -1.26338,0.57618 -3.85298,1.04759 -5.75466,1.04759 -4.12194,0 3.17557,4.89343 -128.94829,-86.46777 C 72.520309,70.480871 27.857809,39.765801 27.170309,39.496021 c -0.99492,-0.39041 -1.22346,17.74401 -1.11994,88.866479 0.0715,49.14635 0.40903,101.16771 0.75,115.60304 l 0.61994,26.24604 65,-50.45966 c 43.377301,-33.67391 66.059451,-50.67105 68.184821,-51.09511 4.37747,-0.87341 9.75283,1.10566 12.78245,4.70616 2.84596,3.38222 3.44746,10.58246 1.21912,14.59342 -0.6835,1.23029 -28.00505,22.98045 -60.71456,48.3337 -32.709511,25.35324 -59.899331,46.50914 -60.421831,47.0131 -0.57559,0.55518 79.133291,0.9163 202.250001,0.9163 111.76,0 203.2,-0.19954 203.2,-0.44342 z M 356.29004,95.684471 l 99.86973,-69.46498 -200.31973,0 c -137.72172,0 -199.997151,0.32258 -199.287461,1.03227 1.39299,1.39299 198.733831,137.881789 199.367731,137.890679 0.275,0.004 45.44138,-31.25223 100.36973,-69.457969 z"
     style="fill:#010101" />
</svg>
