<?xml version="1.0" encoding="UTF-8" standalone="no"?>
<svg
   xmlns:dc="http://purl.org/dc/elements/1.1/"
   xmlns:cc="http://creativecommons.org/ns#"
   xmlns:rdf="http://www.w3.org/1999/02/22-rdf-syntax-ns#"
   xmlns:svg="http://www.w3.org/2000/svg"
   xmlns="http://www.w3.org/2000/svg"
   viewBox="0 0 472.98379 790.64172"
   height="790.64172"
   width="472.9838"
   version="1.1"
   id="svg2">
  <metadata
     id="metadata8">
    <rdf:RDF>
      <cc:Work
         rdf:about="">
        <dc:format>image/svg+xml</dc:format>
        <dc:type
           rdf:resource="http://purl.org/dc/dcmitype/StillImage" />
        <dc:title></dc:title>
      </cc:Work>
    </rdf:RDF>
  </metadata>
  <defs
     id="defs6" />
  <path
     id="path4138"
     d="m 153.60202,788.82815 c -2.59203,-1.14137 -6.07141,-4.08168 -7.73195,-6.53404 -2.94866,-4.35469 -3.02889,-8.92864 -3.43527,-195.82481 l -0.41608,-191.36598 -62.649054,0 c -66.79882,0 -69.04685,-0.22806 -75.6940303,-7.67913 -2.95812998,-3.31589 -3.11195998,-5.98627 -3.53328998,-61.3352 -0.37642,-49.45027 -0.0953,-58.59586 1.93253998,-62.86921 4.62714,-9.75097 3.34375,-9.56652 70.0285803,-10.06523 l 60.695874,-0.45393 0.005,-18.10277 c 0.0113,-36.32997 4.78995,-72.24867 13.41593,-100.83473 C 168.10134,61.250238 215.87958,18.177664 291.4997,2.7922085 303.64938,0.32027054 314.10255,2.3253872e-4 382.69191,2.3253872e-4 c 85.08117,0 83.40321,-0.17842299872 87.92441,9.34931996128 2.02573,4.2688765 2.3861,13.9474595 2.36677,63.5647945 -0.0246,62.920273 -0.0512,63.145073 -8.20567,69.204853 -4.11663,3.05916 -6.86183,3.29276 -48.71133,4.14509 -46.39083,0.94482 -48.05719,1.17878 -63.11768,8.86208 -9.53206,4.86289 -18.96435,15.08681 -24.29093,26.32959 l -4.8784,10.29685 -0.50267,30.54124 -0.50267,30.54123 63.41746,0 c 38.10078,0 65.02463,0.61104 67.44336,1.53064 2.21423,0.84185 6.32639,3.01672 8.79636,5.41579 1.23855,1.203 2.843,4.32994 2.843,4.32994 l 0,59.36468 c 0,53.32846 -0.26799,59.77368 -2.63567,63.38723 -5.23153,7.9843 -7.59334,8.23976 -76.18063,8.23976 l -63.45173,0 -0.0872,189.04639 c -0.0657,142.30269 -0.54365,190.34883 -1.93299,194.31392 -1.01514,2.89714 -3.80977,6.72445 -6.21028,8.50516 -4.2748,3.17104 -5.92843,3.24477 -80.41237,3.58609 -60.84095,0.2788 -76.99019,-0.0665 -80.76058,-1.72673 z m 132.2901,-225.71265 0,-190.75068 3.53294,-5.25447 c 2.01861,-3.00224 5.82986,-6.04557 8.89175,-7.10016 3.79206,-1.30609 23.78265,-1.87123 68.37428,-1.93299 l 63.01546,-0.0873 0,-34.02062 0,-34.02062 -63.78865,-0.003 c -71.4298,-0.003 -71.87559,-0.0651 -77.38576,-10.82234 -2.50647,-4.89333 -2.72449,-9.49064 -2.27333,-47.93815 0.49237,-41.95978 0.5565,-42.69023 4.8192,-54.88206 11.22848,-32.1148 33.46811,-52.72348 67.77997,-62.80926 9.50257,-2.79323 16.57001,-3.44474 44.17332,-4.07215 l 32.86082,-0.74691 0,-36.269516 0,-36.26951 -67.65464,0.57946 -67.65463,0.579459 -15.46392,4.295267 c -52.86302,14.683892 -86.66946,47.636937 -103.28497,100.67832 -7.92489,25.29849 -11.36731,52.40325 -12.8641,101.28866 -1.07169,35.00202 -1.83596,38.73031 -8.9022,43.42608 -2.67401,1.77698 -14.65516,2.27864 -63.221924,2.64715 l -59.92268,0.45465 0,33.88933 0,33.88935 65.335054,0.44981 c 71.68619,0.49355 70.02238,0.27172 74.61385,9.94754 2.02223,4.26151 2.31914,29.25814 2.31914,195.24629 l 0,190.35907 53.35051,0 53.35051,0 z"
     style="fill:#030303" />
</svg>
