<?xml version="1.0" encoding="UTF-8" standalone="no"?>
<svg
   xmlns:dc="http://purl.org/dc/elements/1.1/"
   xmlns:cc="http://creativecommons.org/ns#"
   xmlns:rdf="http://www.w3.org/1999/02/22-rdf-syntax-ns#"
   xmlns:svg="http://www.w3.org/2000/svg"
   xmlns="http://www.w3.org/2000/svg"
   viewBox="0 0 611.53997 689.52996"
   height="689.52997"
   width="611.53998"
   version="1.1"
   id="svg2">
  <metadata
     id="metadata8">
    <rdf:RDF>
      <cc:Work
         rdf:about="">
        <dc:format>image/svg+xml</dc:format>
        <dc:type
           rdf:resource="http://purl.org/dc/dcmitype/StillImage" />
        <dc:title></dc:title>
      </cc:Work>
    </rdf:RDF>
  </metadata>
  <defs
     id="defs6" />
  <path
     id="path4138"
     d="M 174.37547,688.83084 C 110.85593,683.60367 73.231872,669.08368 39.400822,636.74098 c -42.78779,-40.9054 -50.81534,-90.47689 -23.64651,-146.02124 13.06401,-26.70823 34.30085,-47.02945 67.67804,-64.7601 32.349198,-17.18455 65.919838,-27.31983 105.763478,-31.93095 10.37425,-1.20062 20.7989,-2.47862 23.1659,-2.84002 l 4.30362,-0.65708 -4.53038,-9.45332 c -5.51656,-11.51112 -8.02463,-25.34017 -7.0842,-39.06087 l 0.70507,-10.28671 -13.11179,-0.85927 c -47.28985,-3.09908 -80.1793,-17.96181 -108.264868,-48.92483 -19.26342,-21.23703 -30.74103,-41.87576 -37.46758,-67.37325 -4.03969,-15.31277 -4.94557,-42.9869 -1.97916,-60.46241 C 55.652192,90.95949 102.33421,37.35101 166.96585,13.97076 178.26763,9.8823896 190.3043,7.1212796 212.06349,3.6257296 c 16.4625,-2.64465003 24.03007,-2.85379003 121.96767,-3.37072003 98.02416,-0.51738 104.69059,-0.40477 108.89902,1.83959003 9.3118,4.966 11.08604,16.4653404 4.04866,26.2404304 -16.7735,23.29881 -43.63127,56.76742 -46.91871,58.46742 -2.15551,1.11465 -7.02194,2.02665 -10.81428,2.02665 l -6.89519,0 2.86539,4.02406 c 4.98454,7.00015 13.47347,26.48485 16.22386,37.23876 4.94811,19.34692 2.9155,59.60368 -4.20911,83.36293 -7.62937,25.44258 -24.528,49.03794 -54.10347,75.544 -7.37033,6.60543 -15.90664,15.82863 -19.45149,21.0167 -5.3474,7.8262 -6.39795,10.43142 -6.84356,16.97112 -0.44221,6.48988 -0.0247,8.39452 2.61017,11.90709 6.57969,8.77142 13.20736,15.1599 30.7861,29.67503 25.15594,20.77178 34.45181,29.53875 48.17278,45.43189 25.02211,28.98341 33.32781,50.25987 34.92132,89.45694 0.89373,21.98404 -0.57244,33.89322 -6.42808,52.2128 -12.6086,39.44646 -44.52013,76.88902 -85.43611,100.24427 -14.17595,8.09176 -37.8843,17.56451 -55.82089,22.30341 -32.48173,8.58178 -80.39997,13.15246 -111.2621,10.61274 z m 58.49668,-34.83156 c 57.22198,-6.39232 96.98669,-23.46647 128.84256,-55.32234 28.89034,-28.89034 41.93525,-62.94726 38.32917,-100.06772 -3.82011,-39.32364 -17.08954,-59.17969 -68.06626,-101.85268 -27.05473,-22.6477 -38.17902,-34.34623 -44.10302,-46.37957 -3.91362,-7.94971 -4.3417,-10.01428 -4.35388,-20.99809 -0.0275,-24.81853 8.08991,-37.88789 45.22276,-72.81026 14.35882,-13.50405 27.41225,-30.18347 32.03916,-40.93899 7.30223,-16.9745 8.8145,-26.05818 8.88554,-53.37239 l 0.0666,-25.5988 -4.51546,-10.77844 c -4.18685,-9.99412 -5.76513,-12.00395 -21.6892,-27.61977 -9.44557,-9.26272 -17.87207,-18.1656 -18.72557,-19.78418 -2.31432,-4.38891 -1.87488,-9.98375 1.17735,-14.99001 4.43313,-7.27119 8.97626,-8.33958 35.46254,-8.33958 l 23.45789,0 7.57341,-10.0622 c 4.16539,-5.53421 7.57342,-10.42781 7.57342,-10.87467 0,-0.44686 -38.95396,-0.55552 -86.56437,-0.24146 -86.07362,0.56777 -86.6716,0.59072 -105.47803,4.04813 -21.5722,3.96586 -36.29268,8.9444 -52.99041,17.9216 -37.28927,20.04783 -63.366288,51.59761 -74.533818,90.17617 -2.6922,9.30027 -3.11301,13.75911 -3.11301,32.98453 0,19.55945 0.37946,23.43896 3.1581,32.28785 5.7156,18.20192 13.51491,31.55172 27.488698,47.05144 16.62032,18.43523 33.00752,28.64559 55.95283,34.86248 12.13037,3.28664 15.24702,3.56052 42.06803,3.6968 31.59437,0.16055 33.33936,0.52179 37.79161,7.82364 3.57047,5.85569 3.31545,9.66159 -1.52279,22.7263 -3.6105,9.74941 -4.09244,12.61335 -3.70509,22.01758 0.51291,12.45293 3.96567,20.7092 16.60019,39.69442 5.58331,8.38975 7.42166,12.36197 7.41787,16.02819 -0.005,5.54969 -3.88068,12.7322 -8.08205,14.98071 -1.56313,0.83656 -13.56975,2.37309 -26.68138,3.41449 -59.68874,4.74084 -88.71478,11.60426 -123.53408,29.21055 -29.272988,14.8018 -46.921978,30.28381 -57.581928,50.51189 -15.76404,29.91347 -17.4401,56.96383 -5.08705,82.10117 5.94653,12.10065 19.07923,27.31895 32.46067,37.61573 34.349868,26.43162 94.256808,38.08308 158.759038,30.87748 z m -16.05656,-29.804 c -1.85255,-0.27194 -7.91542,-1.16213 -13.47306,-1.97822 -45.87779,-6.73671 -83.42089,-36.5535 -90.98803,-72.26289 -8.03053,-37.89602 9.61883,-73.19897 45.41252,-90.83592 12.63973,-6.2281 18.43205,-8.13913 37.84024,-12.48442 21.26365,-4.76072 41.97228,-6.58857 57.26568,-5.05458 l 12.18571,1.22228 17.98175,13.42747 c 38.8069,28.97814 49.58738,41.58283 55.74801,65.18133 3.11826,11.94458 2.18896,35.09244 -1.86009,46.33312 -10.65442,29.57798 -38.56783,49.37206 -78.00736,55.31692 -11.93072,1.79837 -33.60549,2.38258 -42.10537,1.13491 z m 41.21838,-34.82401 c 13.40791,-2.56536 21.02248,-5.41885 29.91549,-11.21056 15.25809,-9.93707 22.3538,-26.84518 19.01968,-45.32123 -2.91103,-16.13146 -9.59055,-24.11715 -38.28229,-45.76834 l -17.51497,-13.21705 -15.49402,0.81108 c -35.86436,1.87741 -67.24625,12.17471 -79.48828,26.08239 -8.34017,9.47494 -11.35657,16.91158 -11.89426,29.32406 -0.79023,18.24334 5.37206,29.89615 22.69686,42.91944 20.11737,15.12249 60.05743,22.3085 91.04179,16.38021 z M 224.89942,275.50422 c -24.2017,-6.81273 -45.20385,-26.39776 -57.92923,-54.02047 -17.53277,-38.05796 -20.95438,-73.58664 -9.85597,-102.34028 9.87575,-25.58595 35.61723,-43.85379 61.66857,-43.76403 37.0424,0.12761 64.59986,25.06388 81.10266,73.38839 11.90924,34.87333 11.5134,76.70083 -0.93171,98.45263 -12.80797,22.38599 -47.68499,35.70667 -74.05432,28.28376 z m 33.77648,-35.44009 c 12.57256,-6.36935 16.33962,-15.11744 16.38955,-38.06079 0.0819,-37.6335 -17.49658,-78.44213 -38.378,-89.09504 -6.83771,-3.48833 -20.3705,-4.80333 -26.98076,-2.62175 -13.423,4.42999 -22.57774,17.25492 -25.00943,35.03587 -4.07458,29.79392 12.75244,74.49512 33.988,90.28961 8.77838,6.52913 12.89275,7.91948 23.82437,8.05082 7.12311,0.0856 10.2816,-0.61751 16.16627,-3.59872 z m 261.68564,-47.43798 c -7.79328,-4.75184 -8.48607,-7.77561 -8.48607,-37.03853 l 0,-26.33936 -25.64208,0 c -28.01206,0 -32.27709,-0.8459 -37.45506,-7.42861 -3.33554,-4.24044 -3.86778,-12.92339 -1.09811,-17.91453 0.94999,-1.71194 3.50522,-4.28466 5.67832,-5.71718 3.57685,-2.35788 6.53506,-2.6054 31.234,-2.61344 l 27.28293,-0.009 0.009,-27.28293 c 0.009,-29.37499 0.5072,-31.69978 7.89282,-36.87288 4.18652,-2.93235 13.21059,-2.71022 17.49736,0.43069 7.40578,5.4262 8.2792,9.41169 8.28149,37.78949 l 0.002,25.93563 26.33936,0 c 28.53372,0 31.37269,0.58258 36.86503,7.56496 5.19279,6.60157 2.8416,17.66319 -4.86457,22.88617 -3.33799,2.26238 -6.92558,2.60824 -31.05689,2.99399 l -27.28293,0.43614 0,25.6327 c 0,21.15307 -0.39321,26.46132 -2.24995,30.37412 -4.30852,9.07952 -14.56243,12.2846 -22.94662,7.17245 z"
     style="fill:#020202" />
</svg>
