<?xml version="1.0" encoding="UTF-8" standalone="no"?>
<svg
   xmlns:dc="http://purl.org/dc/elements/1.1/"
   xmlns:cc="http://creativecommons.org/ns#"
   xmlns:rdf="http://www.w3.org/1999/02/22-rdf-syntax-ns#"
   xmlns:svg="http://www.w3.org/2000/svg"
   xmlns="http://www.w3.org/2000/svg"
   viewBox="0 0 610.75702 597.53674"
   height="597.53674"
   width="610.75702"
   version="1.1"
   id="svg2">
  <metadata
     id="metadata8">
    <rdf:RDF>
      <cc:Work
         rdf:about="">
        <dc:format>image/svg+xml</dc:format>
        <dc:type
           rdf:resource="http://purl.org/dc/dcmitype/StillImage" />
        <dc:title></dc:title>
      </cc:Work>
    </rdf:RDF>
  </metadata>
  <defs
     id="defs6" />
  <path
     id="path4138"
     d="M 113.54582,596.31996 C 76.91066,591.74386 42.02212,569.74223 21.21692,538.09493 12.831,525.3389 7.70242,513.76551 3.16458,497.35717 L 0,485.91441 0,298.86262 0,111.81082 3.16458,100.36806 C 10.05281,75.460999 21.28999,55.721213 38.18319,38.852676 59.23984,17.826762 85.52181,4.9635185 114.74104,1.3827945 c 15.04507,-1.843726 366.22984,-1.843726 381.27491,0 29.21924,3.580724 55.5012,16.4439675 76.55785,37.4698815 16.89319,16.868537 28.13038,36.608323 35.01861,61.515384 l 3.16458,11.44276 0,187.0518 0,187.05179 -3.16458,11.44276 c -6.88823,24.90706 -18.12542,44.64685 -35.01861,61.51538 -21.05665,21.02593 -47.33861,33.88916 -76.55785,37.46988 -13.10975,1.60657 -369.59619,1.58562 -382.47013,-0.0225 z m 375.09776,-28.54237 c 28.1314,-2.73597 51.65816,-15.04425 70.1274,-36.6879 6.93986,-8.13265 15.58416,-24.22769 18.96942,-35.31963 4.60899,-15.10158 5.06382,-28.75189 4.6892,-140.73214 l -0.35787,-106.97212 -73.3591,-0.30804 c -71.22008,-0.29907 -73.3111,-0.24354 -71.71315,1.90477 0.90527,1.21704 5.24087,7.00308 9.63466,12.85784 20.45311,27.25395 31.76468,60.32064 32.95715,96.3424 1.48869,44.9699 -12.96955,85.87735 -42.37229,119.88615 -43.07524,49.82313 -111.05716,71.14011 -175.19932,54.93696 -48.09447,-12.14931 -91.92021,-47.77113 -113.18149,-91.99458 -13.41698,-27.90731 -18.67483,-52.55014 -17.67249,-82.82853 1.19247,-36.02176 12.50404,-69.08845 32.95715,-96.3424 4.39379,-5.85476 8.72939,-11.6408 9.63466,-12.85784 1.59795,-2.14831 -0.49307,-2.20384 -71.71316,-1.90477 l -73.35909,0.30804 -0.35787,106.97212 c -0.37462,111.98025 0.0802,125.63056 4.6892,140.73214 11.90573,39.00966 47.22239,68.03682 87.53177,71.94334 14.2424,1.38028 353.95403,1.43952 368.09522,0.0642 z M 332.4546,507.39361 c 73.02675,-13.65566 125.19675,-82.8486 117.73067,-156.1459 -1.99678,-19.60323 -6.12535,-33.73352 -15.1312,-51.78749 -14.87592,-29.82168 -37.37302,-52.07768 -66.96778,-66.2501 -60.8405,-29.13546 -133.422,-12.59358 -176.07045,40.1278 -10.76696,13.30996 -22.80134,36.88345 -27.06428,53.01474 -11.46908,43.39996 -2.92374,88.88437 23.34508,124.25917 25.55519,34.41381 62.88077,55.03491 106.92249,59.07103 7.62826,0.69908 27.92929,-0.54903 37.23547,-2.28925 z m -42.01634,-41.97438 c -15.33335,-2.4625 -33.26332,-10.09075 -46.11939,-19.62134 -17.83977,-13.22518 -30.73286,-32.11271 -37.23494,-54.54673 -2.31356,-7.98244 -2.68851,-11.98094 -2.6113,-27.84671 0.082,-16.84077 0.39043,-19.45 3.3912,-28.68526 14.21424,-43.74612 52.24346,-71.71315 97.51467,-71.71315 45.2712,0 83.30042,27.96703 97.51466,71.71315 3.00077,9.23526 3.30924,11.84449 3.3912,28.68526 0.0772,15.86577 -0.29774,19.86427 -2.6113,27.84671 -6.50208,22.43402 -19.39517,41.32155 -37.23494,54.54673 -9.2964,6.8917 -24.72843,14.47116 -35.36241,17.36829 -7.12121,1.94011 -33.48468,3.40177 -40.63745,2.25305 z m 37.55726,-31.9833 c 12.21465,-4.13251 20.57267,-9.54514 29.95333,-19.39771 37.53068,-39.41865 20.77316,-101.51046 -32.25163,-119.50223 -4.9124,-1.66681 -10.04736,-2.2305 -20.31872,-2.2305 -10.27137,0 -15.40633,0.56369 -20.31873,2.2305 -20.39105,6.91886 -35.71366,19.70666 -44.17036,36.86329 -14.24598,28.90169 -9.78308,59.84545 11.91873,82.63894 11.58445,12.1672 24.6672,19.36351 40.61816,22.34245 8.91819,1.66552 24.98871,0.29657 34.56922,-2.94474 z M 215.81465,214.55252 c 17.56718,-10.67149 41.22356,-19.29566 62.0738,-22.62963 14.54858,-2.32633 40.43151,-2.32633 54.98009,0 20.85024,3.33397 44.50662,11.95814 62.0738,22.62963 l 6.96399,4.23041 90.38151,0 90.3815,0 -0.01,-43.32669 c -0.006,-23.82969 -0.54862,-48.16734 -1.20717,-54.08367 C 577.60311,86.792787 557.7392,57.20267 527.86859,41.552203 514.84471,34.728441 503.60262,31.402532 488.64338,29.94764 c -15.60768,-1.517954 -350.92249,-1.517954 -366.53017,0 -14.9588,1.454892 -26.20089,4.780801 -39.22477,11.604563 C 65.07285,50.886416 50.22565,65.74788 40.83513,83.645672 29.59112,105.07611 28.11097,115.74474 28.09746,175.45624 l -0.01,43.32669 90.3815,0 90.38151,0 6.96399,-4.23041 z m 234.59622,-14.89345 c -7.49316,-1.5566 -14.01998,-5.33642 -18.74346,-10.85475 -7.50209,-8.7645 -7.96362,-11.70253 -7.95054,-50.61279 0.012,-33.9121 0.0789,-34.89088 2.80695,-40.723337 3.78976,-8.102271 12.07203,-15.495721 19.99396,-17.848279 9.19552,-2.730775 67.11749,-2.723103 76.32122,0.01016 8.08868,2.402079 16.79518,10.348692 20.32293,18.54919 2.48962,5.787266 2.56937,7.320476 2.22019,42.685766 l -0.36218,36.68284 -3.18023,5.37849 c -4.22645,7.14791 -8.71147,11.24685 -15.94328,14.57087 -5.7201,2.62918 -7.35846,2.75641 -38.24701,2.97032 -17.74901,0.1229 -34.50635,-0.24091 -37.23855,-0.80848 z m 65.79593,-30.57549 c 0.39902,-1.03982 0.72549,-15.00496 0.72549,-31.03364 0,-27.58964 -0.12323,-29.20902 -2.31187,-30.38034 -3.10497,-1.66173 -56.81313,-1.66173 -59.9181,0 -2.18864,1.17132 -2.31187,2.7907 -2.31187,30.38034 0,16.02868 0.32646,29.99382 0.72549,31.03364 0.63559,1.65633 4.54424,1.89058 31.54543,1.89058 27.00118,0 30.90984,-0.23425 31.54543,-1.89058 z"
     style="fill:#010101" />
</svg>
