<?xml version="1.0" encoding="UTF-8" standalone="no"?>
<svg
   xmlns:dc="http://purl.org/dc/elements/1.1/"
   xmlns:cc="http://creativecommons.org/ns#"
   xmlns:rdf="http://www.w3.org/1999/02/22-rdf-syntax-ns#"
   xmlns:svg="http://www.w3.org/2000/svg"
   xmlns="http://www.w3.org/2000/svg"
   viewBox="0 0 510.92276 511.3154"
   height="511.3154"
   width="510.92276"
   version="1.1"
   id="svg2">
  <metadata
     id="metadata8">
    <rdf:RDF>
      <cc:Work
         rdf:about="">
        <dc:format>image/svg+xml</dc:format>
        <dc:type
           rdf:resource="http://purl.org/dc/dcmitype/StillImage" />
        <dc:title></dc:title>
      </cc:Work>
    </rdf:RDF>
  </metadata>
  <defs
     id="defs6" />
  <path
     id="path4138"
     d="m 331.52779,509.87376 c -57.17191,-7.14622 -123.30827,-40.5228 -184,-92.85801 -13.49596,-11.63772 -41.97492,-40.11668 -53.612641,-53.61264 -49.36251,-57.24437 -80.63476,-116.88818 -91.4932897,-174.5 -2.74268,-14.55174 -3.25975,-42.28857 -1.016,-54.49999 3.81456,-20.76037 11.6992797,-36.900275 25.4660797,-52.128665 l 5.99246,-6.628663 0.0817,-8.371337 c 0.12468,-12.775411 2.10931,-16.013169 21.80305,-35.56985 12.77083,-12.681949 17.53937,-16.760403 21.96555,-18.786775 8.47144,-3.8783558 18.58669,-3.6143508 27.313101,0.712865 2.53543,1.25726 23.47825,21.441891 57.19869,55.127963 59.90021,59.839142 58.64838,58.299492 58.62031,72.098382 -0.0238,11.71818 -1.84344,14.60437 -21.60443,34.26832 -10.21129,10.16113 -19.04527,18.07543 -21.71457,19.45389 -3.63849,1.87896 -6.21008,2.34846 -13.43237,2.45233 l -8.93238,0.12847 -5.31762,5.53359 c -5.07442,5.2805 -5.31709,5.77773 -5.30576,10.87153 0.0492,22.11653 24.07746,61.7084 58.09756,95.72851 34.0104,34.0104 73.61245,58.04829 95.71481,58.09756 5.08798,0.0113 5.57766,-0.22986 11.03564,-5.43589 l 5.7114,-5.44775 -0.39376,-6.96868 c -0.72866,-12.89547 0.5194,-15.01515 21.0878,-35.81476 20.60795,-20.8396 23.37448,-22.6158 35.26315,-22.64005 12.81285,-0.0261 11.23365,-1.32219 71.45343,58.64252 30.60827,30.47862 54.85954,55.41812 55.91324,57.5 4.39496,8.68344 4.46835,18.96454 0.19731,27.64026 -2.35855,4.79088 -6.47441,9.50152 -19.78526,22.64437 -14.87646,14.6887 -17.49644,16.85228 -22.80719,18.83417 -4.66599,1.74127 -7.44517,2.14246 -12.5,1.80447 l -6.5,-0.43463 -7,6.17998 c -13.77114,12.15791 -25.84299,18.78472 -41.74705,22.91694 -18.38146,4.77591 -34.81717,5.67844 -55.75295,3.06157 z m 39.5,-30.88982 c 14.96685,-2.64995 25.7061,-7.48457 34.66383,-15.60503 l 5.33617,-4.83741 -38.95595,-39.02994 -38.95595,-39.02994 -6.24214,5.99401 c -6.92288,6.64769 -11.76703,9.16404 -21.14594,10.98451 -21.48722,4.17073 -56.69474,-9.80917 -91.64352,-36.38902 -61.46534,-46.74668 -107.55704,-117.89716 -100.66595,-155.39526 1.78859,-9.73267 4.24656,-14.54724 11.03693,-21.61871 l 5.99401,-6.24213 -39.029941,-38.95595 -39.02994,-38.955952 -4.83741,5.336172 c -18.66381,20.58815 -22.09434,56.55798 -9.61499,100.81539 26.57762,94.25635 122.375401,201.64265 222.847991,249.80562 26.2534,12.58495 54.96841,21.62614 75.7428,23.84835 8.84396,0.94602 27.24712,0.55944 34.5,-0.72471 z m 86.75934,-44.33963 12.73048,-12.75881 -50.25397,-50.24657 -50.25397,-50.24658 -12.98184,13.01072 -12.98185,13.01073 49.98715,49.99466 c 27.49294,27.49706 50.22034,49.99465 50.50534,49.99465 0.285,0 6.24689,-5.74146 13.24866,-12.7588 z m -281,-280.99999 12.73048,-12.75881 L 139.26364,90.638934 89.009669,40.392355 76.027829,53.403082 63.045979,66.413809 113.03313,116.40847 c 27.49294,27.49706 50.22034,49.99465 50.50534,49.99465 0.285,0 6.24689,-5.74146 13.24866,-12.7588 z m 157.01132,91.79497 c -5.29019,-2.40147 -8.00466,-6.74247 -8.73571,-13.97024 -1.49514,-14.78225 -5.62731,-23.98808 -14.61572,-32.56157 -7.85056,-7.48817 -16.14379,-11.27885 -27.49856,-12.56907 -10.65028,-1.21016 -14.19654,-3.05243 -17.17067,-8.92006 -2.77057,-5.46605 -2.8212,-8.20384 -0.24991,-13.51541 3.92734,-8.11281 13.38531,-10.39682 29.18581,-7.0481 15.07294,3.19453 26.96535,9.7367 38.29551,21.06687 11.33017,11.33015 17.87234,23.22256 21.06687,38.2955 3.34872,15.8005 1.06471,25.25847 -7.0481,29.18581 -5.12271,2.47986 -7.83017,2.48729 -13.22952,0.0363 z m 77.76152,0.17308 c -6.45078,-3.55695 -8.96117,-9.22192 -9.00832,-20.32827 -0.0131,-3.09046 -0.69496,-9.46738 -1.51519,-14.17094 -6.72448,-38.56101 -31.17135,-71.61813 -66.13341,-89.42576 -16.10822,-8.20458 -29.18103,-11.78747 -48.30524,-13.23912 -7.14068,-0.54202 -13.09669,-1.52471 -14.90323,-2.45891 -4.91716,-2.54276 -7.66679,-7.299402 -7.66679,-13.262922 0,-5.84418 1.99326,-9.305716 7.59195,-13.184338 3.23723,-2.242671 3.98705,-2.333353 14.96017,-1.80926 34.46347,1.646028 67.40166,14.871091 93.66974,37.60948 31.64279,27.3909 50.94856,67.13705 52.94841,109.00866 0.52409,10.97312 0.43341,11.72294 -1.80926,14.96017 -5.1525,7.4375 -13.15571,9.98077 -19.82883,6.30121 z m 79.96782,1.12198 c -7.55736,-3.10562 -10.94641,-9.44348 -10.97804,-20.53002 -0.0294,-10.29179 -2.51644,-28.94393 -5.55111,-41.63124 C 459.22299,118.61859 409.93592,64.208679 345.35781,41.45757 327.57908,35.194057 301.49557,30.428992 284.72657,30.381156 c -13.60991,-0.03882 -20.69878,-5.400215 -20.69878,-15.654708 0,-5.6013918 1.83962,-9.0037248 6.90009,-12.7615418 2.50864,-1.862876 4.09452,-2.050031 16.43821,-1.939922 45.27772,0.403889 92.22182,16.9715758 132.07193,46.6113268 12.21102,9.082319 35.53881,32.426557 44.82498,44.856574 29.57831,39.592105 46.23879,86.767175 46.64292,132.071925 0.13257,14.8615 -0.38067,16.51123 -6.57568,21.13647 -2.62538,1.96013 -10.09384,3.14614 -12.80245,2.03307 z"
     style="fill:#020202" />
</svg>
