<?xml version="1.0" encoding="UTF-8" standalone="no"?>
<svg
   xmlns:dc="http://purl.org/dc/elements/1.1/"
   xmlns:cc="http://creativecommons.org/ns#"
   xmlns:rdf="http://www.w3.org/1999/02/22-rdf-syntax-ns#"
   xmlns:svg="http://www.w3.org/2000/svg"
   xmlns="http://www.w3.org/2000/svg"
   viewBox="0 0 609.62653 781.7901"
   height="781.7901"
   width="609.62653"
   version="1.1"
   id="svg2">
  <metadata
     id="metadata8">
    <rdf:RDF>
      <cc:Work
         rdf:about="">
        <dc:format>image/svg+xml</dc:format>
        <dc:type
           rdf:resource="http://purl.org/dc/dcmitype/StillImage" />
        <dc:title></dc:title>
      </cc:Work>
    </rdf:RDF>
  </metadata>
  <defs
     id="defs6" />
  <path
     id="path3346"
     d="m 132.83782,779.13495 c -11.71037,-5.37743 -15.15334,-12.45834 -17.62258,-36.2432 -2.6293,-25.32661 0.33713,-94.16407 5.52458,-128.20051 3.15234,-20.68344 4.65991,-27.41534 32.92634,-147.0289 l 24.63451,-104.24453 -3.98616,-12.64851 c -6.88385,-21.84326 -9.09163,-39.02358 -8.1053,-63.07297 1.43577,-35.00763 9.87826,-60.7075 27.75476,-84.48851 17.11168,-22.76354 44.43893,-37.04214 70.74023,-36.96204 33.64737,0.10253 58.43493,17.29198 70.4381,48.84686 3.39812,8.93328 3.78703,12.2294 3.78887,32.11133 0.003,26.80072 -2.47147,38.67597 -20.69125,99.32089 -14.85263,49.43726 -16.80676,57.58189 -16.90374,70.4531 -0.13737,18.24216 9.83118,33.48016 27.58501,42.1663 11.84879,5.79707 30.85475,6.71913 45.67992,2.21612 38.66541,-11.74427 72.30131,-59.44463 87.44107,-124.00361 8.21106,-35.01353 11.34052,-82.58099 7.18779,-109.25297 -10.49993,-67.4383 -57.08394,-110.09426 -129.41592,-118.5033 -32.96461,-3.83234 -72.72813,-0.23345 -99.25127,8.98296 -61.52304,21.37838 -107.64158,74.91597 -119.81512,139.08964 -8.68775,45.79808 -1.73612,84.05149 19.85912,109.28066 7.9775,9.31992 11.33121,17.47489 11.33121,27.55332 0,9.43678 -8.81505,46.24648 -13.10918,54.74106 -5.90184,11.67489 -14.06915,16.88898 -26.73568,17.06831 -10.79649,0.15286 -26.964375,-7.46993 -43.062935,-20.30316 C 46.390615,427.96575 33.087725,410.93836 20.320555,383.66607 5.686995,352.40691 0.17010497,325.51016 0.00903497,284.64031 c -0.1182,-29.99199 0.79102,-35.92007 10.72990003,-69.95864 14.58242,-49.94173 34.00477,-84.28315 67.04406,-118.543214 C 102.81102,70.185646 128.38684,51.784686 163.15647,34.715046 207.60261,12.894866 252.36613,2.6067957 313.14341,0.24331565 417.73128,-3.8238543 514.22432,43.317406 568.86248,125.17376 c 16.75247,25.09776 32.04724,63.29815 37.84656,94.52597 3.87345,20.85751 3.89356,73.03034 0.0387,100.08489 -11.15744,78.30364 -37.23093,136.89162 -81.12947,182.30055 -27.47256,28.41778 -57.38816,47.79522 -90.99766,58.94259 -23.29822,7.72737 -36.36885,10.16978 -59.76631,11.16805 -38.99382,1.66368 -69.79138,-6.46266 -98.91864,-26.10101 -4.49667,-3.03172 -8.66848,-5.51222 -9.27078,-5.51222 -0.60228,0 -2.34168,5.32895 -3.86532,11.84211 -7.21313,30.83426 -22.6615,85.89128 -27.65804,98.57145 -14.31821,36.33661 -36.87618,76.51536 -57.21354,101.90492 -22.53644,28.13495 -30.65895,32.86072 -45.09012,26.23389 z m 33.05086,-68.17885 c 10.99801,-16.43577 32.78869,-60.25461 39.51305,-79.45671 2.64872,-7.56367 11.96486,-41.60017 20.70251,-75.63667 14.85292,-57.85772 16.18978,-62.15798 20.54475,-66.08659 3.34091,-3.01381 6.28347,-4.20204 10.40605,-4.20204 7.22673,0 11.01814,2.65447 18.76024,13.13456 12.13507,16.42664 33.50343,29.66588 58.10406,35.99967 9.90876,2.55115 17.20117,3.29374 31.94054,3.25247 74.12705,-0.20755 140.79527,-45.91145 177.29522,-121.54335 15.31669,-31.73789 24.31788,-63.79514 29.8135,-106.17915 2.04158,-15.74529 2.43683,-26.77805 1.77908,-49.66044 -0.92046,-32.02186 -2.70388,-42.9204 -10.93992,-66.85435 C 535.17386,110.5134 458.8086,50.572676 364.32498,37.145196 c -29.67178,-4.21679 -75.4464,-2.60155 -109.75699,3.87297 -67.87964,12.8091 -125.64329,45.62626 -165.238725,93.876804 -23.1248,28.17963 -35.11778,52.94075 -48.47582,100.08489 -4.79304,16.91592 -5.49814,21.72127 -6.16583,42.02038 -0.61117,18.58087 -0.14672,26.73059 2.45319,43.04659 3.53529,22.18597 5.49934,29.00678 13.56419,47.10621 8.25127,18.51778 16.22917,30.12298 28.739,41.80579 12.11186,11.31114 27.781795,22.51591 29.327295,20.97043 0.51575,-0.51575 2.84566,-8.62518 5.17759,-18.02093 l 4.23987,-17.08319 -8.18197,-10.78003 C 94.014015,362.97414 85.623755,339.85135 83.205655,310.18377 c -4.36631,-53.57046 12.04669,-108.42123 45.593285,-152.36859 32.09503,-42.04574 75.26905,-68.137444 133.15603,-80.471274 13.66175,-2.91087 20.80892,-3.42423 48.13242,-3.45723 27.26583,-0.0329 34.65901,0.47691 49.19375,3.39247 49.58933,9.94726 86.31326,31.749284 112.3909,66.723514 32.29129,43.3077 41.1407,98.51858 28.54243,178.07398 -5.0602,31.95403 -14.56677,62.90499 -26.98637,87.86078 -18.47227,37.11794 -51.62785,71.26153 -79.39996,81.76601 -63.13573,23.88038 -127.28913,-13.81508 -127.28913,-74.79292 0,-14.93795 2.9801,-28.24188 16.10879,-71.91367 18.25752,-60.7325 20.85504,-71.7346 21.70746,-91.94406 0.59077,-14.0064 0.2167,-19.40722 -1.7424,-25.15686 -3.92665,-11.52414 -9.5512,-18.40018 -18.72098,-22.88655 -7.38075,-3.61104 -9.52898,-3.95537 -20.81361,-3.33605 -18.9113,1.03789 -31.28096,8.19859 -43.32948,25.08308 -20.7186,29.0345 -25.28485,72.47225 -11.95345,113.71037 2.89476,8.95439 5.26319,18.62386 5.26319,21.48771 0,2.86386 -10.34864,48.8681 -22.99697,102.23164 -29.46875,124.32922 -32.87445,139.49387 -35.68795,158.9092 -2.7835,19.20836 -5.51075,65.20628 -5.43581,91.68081 l 0.0541,19.10017 3.84726,-4.58404 c 2.11601,-2.52122 7.9883,-10.77249 13.04954,-18.33616 z"
     style="fill:#020202" />
</svg>
