<?xml version="1.0" encoding="UTF-8" standalone="no"?>
<svg
   xmlns:dc="http://purl.org/dc/elements/1.1/"
   xmlns:cc="http://creativecommons.org/ns#"
   xmlns:rdf="http://www.w3.org/1999/02/22-rdf-syntax-ns#"
   xmlns:svg="http://www.w3.org/2000/svg"
   xmlns="http://www.w3.org/2000/svg"
   viewBox="0 0 383.53143 511.74432"
   height="511.74432"
   width="383.53143"
   version="1.1"
   id="svg2">
  <metadata
     id="metadata8">
    <rdf:RDF>
      <cc:Work
         rdf:about="">
        <dc:format>image/svg+xml</dc:format>
        <dc:type
           rdf:resource="http://purl.org/dc/dcmitype/StillImage" />
        <dc:title></dc:title>
      </cc:Work>
    </rdf:RDF>
  </metadata>
  <defs
     id="defs6" />
  <path
     id="path4138"
     d="m 6.106722,509.78479 c -4.2616,-2.59845 -6.66124995,-7.38128 -5.99718995,-11.95323 0.45014,-3.09919 61.29339995,-133.19743 68.45542995,-146.37497 2.82286,-5.19384 4.6006,-6.2236 28.97072,-16.78143 5.625118,-2.43697 10.237618,-4.81799 10.249998,-5.29117 0.0124,-0.47317 -12.751618,-22.29817 -28.364428,-48.5 -31.63697,-53.09397 -33.03316,-55.66214 -37.89559,-69.70557 -6.06277,-17.51019 -8.71748,-33.50187 -8.71748,-52.51305 0,-38.5061 13.71668,-74.76706 39.39182,-104.134907 C 115.32246,5.2059579 182.89747,-12.54206 245.30818,9.0650309 c 19.62105,6.7929671 40.00327,19.5494911 56.5123,35.3690931 26.54663,25.438027 42.03801,55.620356 47.56132,92.665156 2.1706,14.55817 1.45524,39.73488 -1.52875,53.8036 -2.38781,11.25786 -7.90839,27.62386 -12.23648,36.27554 -1.66899,3.33624 -15.80864,27.50375 -31.42146,53.70557 -15.61281,26.20183 -28.3768,48.02683 -28.36443,48.5 0.0124,0.47318 4.62488,2.8542 10.25,5.29117 24.37012,10.55783 26.14786,11.58759 28.97072,16.78143 1.43118,2.63325 17.30744,35.83772 35.2806,73.78772 20.31267,42.88985 32.85013,70.51363 33.13213,73 0.78565,6.92713 -5.41914,13.5 -12.74401,13.5 -1.18377,0 -21.56072,-8.62455 -45.28212,-19.16567 -23.7214,-10.54113 -43.57982,-19.15764 -44.12982,-19.14782 -0.55,0.01 -19.9,8.49739 -43,18.86126 -34.42315,15.44403 -42.81181,18.8434 -46.5,18.8434 -3.68819,0 -12.07685,-3.39937 -46.5,-18.8434 -23.1,-10.36387 -42.45,-18.85144 -43,-18.86126 -0.55,-0.01 -20.408418,8.60669 -44.129818,19.14782 -23.7214,10.54112 -44.4214,19.16399 -46,19.16193 -1.5786,-0.002 -4.31084,-0.88215 -6.07164,-1.95578 z M 235.73033,465.74431 c 25.73988,-11.47104 43.86804,-19 45.748,-19 1.83296,0 15.52352,5.52419 33.28161,13.42926 16.59226,7.38609 30.02836,13.02479 29.85799,12.53043 -0.17036,-0.49435 -11.55975,-24.72267 -25.30975,-53.84071 l -25,-52.94189 -15.40307,-6.83854 c -8.47169,-3.7612 -15.74099,-6.97415 -16.154,-7.13988 -0.41302,-0.16574 -9.6399,14.607 -20.50419,32.8283 -21.12916,35.43728 -24.56518,39.92376 -34.19931,44.65465 -5.18845,2.54782 -6.74742,2.81838 -16.23943,2.81838 -9.49201,0 -11.05098,-0.27056 -16.23943,-2.81838 -9.63413,-4.73089 -13.07015,-9.21737 -34.19931,-44.65465 -10.86429,-18.2213 -20.09117,-32.99404 -20.50419,-32.8283 -0.41301,0.16573 -7.68231,3.37868 -16.154,7.13988 l -15.403068,6.83854 -25,52.94189 c -13.75,29.11804 -25.13939,53.34636 -25.30975,53.84071 -0.17037,0.49436 13.26573,-5.14434 29.85799,-12.53043 18.00724,-8.01598 31.434268,-13.42775 33.309748,-13.42551 1.913,0.002 19.76602,7.42645 45.64201,18.98021 23.375,10.43706 43.1273,18.98537 43.894,18.99625 0.76671,0.0109 20.57937,-8.53021 44.02815,-18.98021 z m -37.9537,-59.48369 c 3.49383,-1.80673 0.27452,3.39687 62.80524,-101.51631 28.02801,-47.025 52.32865,-88.65 54.00142,-92.5 3.83212,-8.81988 7.69079,-21.79075 9.37086,-31.5 2.09656,-12.11619 1.59983,-36.58158 -0.98903,-48.71229 C 312.90487,84.892334 279.59632,47.328414 234.46831,32.229225 207.70383,23.274208 177.30679,23.084975 150.916,31.709082 82.637102,54.021588 43.412832,126.98219 62.998002,195.24431 c 4.42558,15.4249 10.01637,25.62527 59.956618,109.39043 62.14792,104.24118 59.40795,99.80081 62.67949,101.57738 3.47973,1.88962 8.54308,1.90985 12.14252,0.0485 z M 182.80818,216.11966 c -21.79544,-4.22566 -39.59026,-19.80578 -46.11467,-40.37535 -3.16503,-9.97843 -2.96031,-24.14342 0.49613,-34.32783 8.27612,-24.38555 29.3219,-39.67216 54.61854,-39.67216 25.21841,0 46.46295,15.37338 54.58521,39.49999 3.51487,10.44071 3.73955,24.54123 0.54972,34.5 -7.52647,23.49788 -28.3397,39.51079 -52.63493,40.49533 -4.95,0.20059 -10.125,0.1466 -11.5,-0.11998 z m 20.22024,-27.01467 c 6.64987,-2.11552 14.41324,-9.40657 17.92909,-16.83832 7.37612,-15.59152 0.34218,-34.72543 -15.64933,-42.56971 -4.11597,-2.019 -6.50285,-2.45264 -13.5,-2.45264 -10.32215,0 -16.04795,2.39448 -23.17383,9.6911 -6.54931,6.70622 -9.15894,13.94121 -8.58775,23.80889 0.53391,9.2238 3.58099,15.73528 10.23247,21.8664 9.2644,8.53962 19.77091,10.62309 32.74935,6.49428 z"
     style="fill:#020202" />
</svg>
