<?xml version="1.0" encoding="UTF-8" standalone="no"?>
<svg
   xmlns:dc="http://purl.org/dc/elements/1.1/"
   xmlns:cc="http://creativecommons.org/ns#"
   xmlns:rdf="http://www.w3.org/1999/02/22-rdf-syntax-ns#"
   xmlns:svg="http://www.w3.org/2000/svg"
   xmlns="http://www.w3.org/2000/svg"
   viewBox="0 0 510.78937 511.09555"
   height="511.09555"
   width="510.78937"
   version="1.1"
   id="svg2">
  <metadata
     id="metadata8">
    <rdf:RDF>
      <cc:Work
         rdf:about="">
        <dc:format>image/svg+xml</dc:format>
        <dc:type
           rdf:resource="http://purl.org/dc/dcmitype/StillImage" />
        <dc:title></dc:title>
      </cc:Work>
    </rdf:RDF>
  </metadata>
  <defs
     id="defs6" />
  <path
     id="path4138"
     d="m 237.39468,510.84483 c -1.925,-0.22566 -7.775,-0.87414 -13,-1.44107 -32.99339,-3.5799 -69.52878,-15.9602 -99.01094,-33.55063 -37.521845,-22.38728 -68.019205,-52.88465 -90.406495,-90.4065 -17.44641,-29.24077 -29.03406,-63.22191 -33.76298,-99.01094 -1.61902,-12.25295 -1.61902,-49.74705 0,-62 C 9.441975,162.16744 36.790515,109.38627 83.146675,66.310729 108.79247,42.479863 140.69162,23.83543 175.39468,12.393544 202.74922,3.3745292 224.53171,0 255.39468,0 c 22.83197,0 32.91912,0.96335127 53,5.0616538 68.85098,14.0517782 130.3804,58.2877322 167.41745,120.3630962 17.44641,29.24077 29.03406,63.22191 33.76298,99.01094 1.61903,12.25295 1.61903,49.74705 0,62 -4.72892,35.78903 -16.31657,69.77017 -33.76298,99.01094 -22.38729,37.52185 -52.88466,68.01922 -90.40651,90.4065 -28.94285,17.26866 -63.45671,29.10178 -98.01094,33.6032 -8.76988,1.14246 -43.80033,2.11526 -50,1.3885 z m 41.78941,-23.43784 c 26.3225,-2.7885 53.80386,-10.60776 76.84582,-21.86491 26.23696,-12.81808 43.27368,-24.97491 63.88496,-45.5862 20.61129,-20.61128 32.76812,-37.648 45.58621,-63.88496 18.82502,-38.53243 26.53965,-84.39993 21.38334,-127.13523 -0.79633,-6.6 -1.4573,-12.3375 -1.4688,-12.75 -0.035,-1.25573 -5.70898,-0.8357 -6.75416,0.5 -0.53796,0.6875 -1.52272,3.5 -2.18836,6.25 -2.50624,10.35419 -8.66233,17.05499 -17.89627,19.47978 -6.12621,1.60872 -13.38169,-0.12903 -19.90272,-4.76686 -2.87131,-2.0421 -7.00957,-4.99482 -9.19613,-6.56159 l -3.97558,-2.84868 -8.05386,4.29128 c -4.42962,2.3602 -8.03743,4.5421 -8.01735,4.84867 0.0201,0.30657 2.04783,1.83195 4.5061,3.38973 6.59385,4.17846 9.94722,10.46805 9.95289,18.66767 0.006,8.23335 -1.44041,11.1423 -11.02453,22.1766 -8.8411,10.17885 -13.34075,12.8234 -21.81881,12.8234 -7.40566,0 -9.51249,-0.95003 -26.56593,-11.97927 -7.85114,-5.07769 -14.65152,-8.84709 -15.11197,-8.37645 -0.46044,0.47065 -1.13243,3.55572 -1.49332,6.85572 l -0.65615,6 9.56307,9.26169 c 8.39158,8.12711 9.75983,9.93852 11.16927,14.78685 1.75614,6.04089 1.30433,11.80556 -1.32858,16.95146 -0.84423,1.65 -5.87844,9.525 -11.18714,17.5 -16.16613,24.28559 -14.3007,18.24353 -15.57969,50.46207 -0.97868,24.65369 -1.36024,28.58109 -3.16118,32.53793 -2.70407,5.94109 -38.20953,41.22223 -43.89454,43.61721 -4.73303,1.99394 -13.1061,2.15225 -17.60401,0.33284 -5.69656,-2.30427 -25.15418,-14.06679 -28.51338,-17.2369 -4.84823,-4.57534 -5.9829,-7.82228 -11.35285,-32.48678 -3.18944,-14.6493 -6.59343,-27.16894 -9.57776,-35.22637 -2.54637,-6.875 -4.71199,-12.60586 -4.81247,-12.73525 -0.10049,-0.12939 -10.44717,-1.14641 -22.99263,-2.26005 -24.38752,-2.16484 -28.59182,-3.21982 -33.78686,-8.47811 -1.50368,-1.52198 -8.90705,-13.386 -16.45193,-26.36448 -12.35976,-21.2609 -13.75665,-24.14501 -14.10872,-29.12968 -0.2233,-3.16166 0.959,-14.5314 2.75902,-26.53243 4.46922,-29.79695 3.48836,-28.17619 28.53559,-47.15214 23.93222,-18.13121 26.10022,-19.34786 34.47664,-19.34786 5.56012,0 8.39014,0.89135 25.39047,7.99701 l 19.13289,7.997 22.29606,2.503 c 12.26283,1.37664 23.68838,2.50299 25.39012,2.50299 2.35288,0 6.9955,-2.79878 19.38064,-11.68352 l 16.28658,-11.68351 -1.94702,-3.81649 c -1.79052,-3.5097 -2.28702,-3.81737 -6.1767,-3.82754 -2.32633,-0.006 -23.85206,-1.10867 -47.83497,-2.45019 -48.77401,-2.72826 -49.34172,-2.8315 -55.77828,-10.14382 -8.97174,-10.19244 -7.59161,-24.67295 3.1664,-33.22235 2.72929,-2.16896 7.65049,-4.01589 18.95187,-7.11265 8.39592,-2.30061 15.57446,-4.26776 15.95233,-4.37143 0.37786,-0.10368 8.84503,-7.8385 18.81593,-17.1885 9.97089,-9.35 19.56173,-17.73316 21.31297,-18.62924 4.41598,-2.25959 5.9629,-2.50332 34.12639,-5.37703 13.71827,-1.39977 25.07002,-2.67274 25.22612,-2.82883 0.15609,-0.1561 3.00598,-11.507054 6.33308,-25.224354 3.3271,-13.7173 6.29769,-25.74227 6.6013,-26.722156 0.45221,-1.459471 -1.67694,-2.846156 -11.7754,-7.669144 -11.22496,-5.361005 -34.82416,-14.049246 -38.16088,-14.049246 -0.75225,0 -3.57246,2.628471 -6.26714,5.841047 -7.20037,8.584255 -11.47789,11.421509 -25.85264,17.147923 -7.12428,2.838073 -13.92839,5.689084 -15.12024,6.335581 -1.19185,0.646497 -11.92111,12.550134 -23.8428,26.452528 -11.92169,13.902391 -23.47787,26.582491 -25.6804,28.177991 -12.82128,9.28769 -32.10916,3.45472 -38.40545,-11.61442 -1.78445,-4.27079 -1.95717,-13.69619 -0.33794,-18.441427 0.63796,-1.869573 5.65385,-11.871278 11.14643,-22.226012 l 9.9865,-18.82679 -1.23725,-6.92321 c -0.68048,-3.807766 -1.53388,-6.923314 -1.89643,-6.923439 -0.36255,-1.25e-4 -4.70918,1.182583 -9.65918,2.628241 -18.06646,5.276346 -36.93239,13.688625 -54.25,24.189958 l -9.25,5.609165 0,29.076333 c 0,31.453561 -0.51492,35.658961 -5.5933,45.680661 -4.28189,8.4499 -11.74911,15.38313 -28.406695,26.37533 -8.525,5.62557 -16.90498,11.73857 -18.62219,13.58443 -1.7172,1.84586 -13.81954,19.06193 -26.89408,38.25792 l -23.77188,34.90182 0.61014,15.59818 c 0.51985,13.2899 2.55834,31.40313 4.07607,36.21839 0.23919,0.75889 0.70606,2.6173 1.03747,4.1298 l 0.60258,2.75 12.36611,0 c 15.64338,0 21.02033,1.56033 27.47938,7.97423 2.53902,2.52127 11.13409,14.84235 19.10015,27.38019 l 14.483745,22.79606 16.31103,15.04638 c 23.54663,21.72096 23.94225,22.80059 19.89883,54.30314 -2.24457,17.48757 -2.30914,19.10274 -0.81128,20.29066 3.34353,2.6517 23.39649,12.37865 34.346,16.65999 17.84476,6.97743 42.30848,12.77135 62.78792,14.87052 8.01844,0.8219 35.77498,0.60508 44.78941,-0.34987 z m 20.89979,-52.2213 16.16646,-16.25 0.65403,-19 c 0.35972,-10.45 1.02668,-23.60931 1.48214,-29.2429 0.96706,-11.96172 1.65142,-13.40066 17.95305,-37.74823 l 10.03714,-14.99114 -9.45078,-9.50886 c -5.19794,-5.22988 -10.14389,-11.18192 -10.99102,-13.22675 -1.91834,-4.63061 -1.95865,-11.43812 -0.12401,-20.94415 1.85077,-9.58965 2.78821,-11.86226 6.75823,-16.38386 4.3532,-4.95802 9.94131,-7.4048 16.97401,-7.43215 6.67381,-0.0259 10.23901,1.68055 28.77112,13.77145 l 12.41957,8.10289 4.08043,-4.61281 c 7.16189,-8.09633 7.09464,-7.53239 1.35588,-11.36896 -6.72696,-4.49722 -10.12715,-10.86706 -10.01818,-18.76787 0.16074,-11.65478 4.52433,-16.81118 21.70339,-25.64666 10.64558,-5.4752 12.20709,-5.99558 17.85265,-5.94949 7.17626,0.0586 10.03845,1.33224 20.45396,9.1019 4.7272,3.52635 7.40723,4.97141 7.66771,4.13438 0.22024,-0.70774 1.17138,-3.86575 2.11365,-7.01781 2.41,-8.06192 6.48077,-13.16457 12.94022,-16.22037 2.96302,-1.40174 6.28862,-2.54861 7.39022,-2.54861 1.1016,0 2.27745,-0.44421 2.61299,-0.98714 0.77913,-1.26065 -4.25721,-16.98383 -8.97287,-28.01286 -12.06113,-28.20861 -28.1211,-51.71594 -50.69623,-74.205166 -12.15234,-12.106091 -31.24057,-27.710561 -32.43543,-26.515698 -0.30871,0.30871 -2.99673,10.735525 -5.97337,23.1707 -5.9724,24.950234 -7.25815,28.720374 -11.21721,32.891744 -5.51446,5.81019 -8.42679,6.55349 -37.82652,9.65426 l -27.52796,2.90335 -10.47037,9.8004 c -5.75871,5.39023 -13.93577,13.04469 -18.17124,17.00991 -9.20267,8.61549 -11.94116,9.998 -28.20086,14.23707 -14.90089,3.88482 -17.28558,4.97616 -11,5.03408 2.475,0.0228 24.19337,1.14303 48.26305,2.48939 37.3872,2.09128 44.38033,2.72499 48,4.3497 6.22674,2.79491 9.40879,6.28167 13.39714,14.68 3.2427,6.82819 3.52958,8.13597 3.17221,14.46059 -0.58203,10.30051 -2.80302,12.86813 -24.83353,28.70923 -10.17438,7.31592 -20.19548,13.98314 -22.26911,14.81606 -5.13631,2.06309 -9.26981,1.91487 -38.72976,-1.3888 l -25.5,-2.85959 -19.29346,-8.09886 -19.29347,-8.09885 -18.70653,14.04291 -18.70654,14.04292 -1.19936,8.18732 c -0.65965,4.50303 -2.04345,13.63519 -3.07513,20.29369 l -1.87576,12.10635 12.1496,20.89365 12.14961,20.89364 22.92552,2.13742 c 23.85064,2.22367 26.76176,2.85619 32.18566,6.9932 6.60271,5.03613 14.33644,25.57523 21.22517,56.36938 2.76831,12.375 5.36661,23.27709 5.77399,24.22686 0.59928,1.39717 19.41375,13.54696 21.25207,13.72392 0.28125,0.0271 7.78627,-7.26328 16.67783,-16.20078 z m -183.61836,-10.6184 1.32687,-12.3684 -8.94885,-8.10111 C 86.049395,383.46297 84.294105,381.39228 68.017185,355.93569 l -15.34558,-24 -8.63846,-0.28893 c -4.75115,-0.15892 -8.63846,0.0692 -8.63846,0.50687 0,2.00266 7.24372,18.91919 12.50902,29.21277 13.79053,26.96031 34.62066,53.25573 56.924185,71.85966 7.76645,6.47819 9.02317,7.20705 9.62198,5.58052 0.37882,-1.02899 1.28587,-7.43667 2.01565,-14.23929 z M 41.939175,180.32799 c 6.42134,-9.40923 13.52553,-18.9034 15.78708,-21.09817 2.26155,-2.19476 11.11089,-8.59852 19.6652,-14.23058 24.623405,-16.21178 25.159015,-17.19018 24.774555,-45.25599 l -0.27133,-19.80756 -8.363365,8 c -23.57042,22.54632 -43.5734,52.69853 -55.5443,83.72671 -4.12327,10.68737 -8.85311,25.77329 -8.08061,25.77329 0.19668,0 5.61143,-7.69846 12.03277,-17.1077 z M 229.18667,69.68569 c 14.85843,-17.323809 24.31126,-27.512766 26.82559,-28.914607 2.13533,-1.190534 9.73242,-4.484174 16.88242,-7.319199 7.15,-2.835026 13.82024,-5.956194 14.82276,-6.935929 1.75229,-1.712474 1.43198,-1.825771 -8.28584,-2.930801 -12.85844,-1.462153 -35.38479,-1.475423 -47.86648,-0.0282 -5.31874,0.616697 -9.78754,1.221301 -9.93067,1.343564 -0.14313,0.122264 0.47122,3.759201 1.36521,8.082084 2.56951,12.424868 1.89275,14.975949 -9.9006,37.32043 -5.69912,10.79796 -10.67184,20.477192 -11.05047,21.509403 -0.75643,2.062161 0.84614,4.623255 2.89294,4.623255 0.71608,0 11.62639,-12.0375 24.24514,-26.75 z"
     style="fill:#020202" />
</svg>
