<?xml version="1.0" encoding="UTF-8" standalone="no"?>
<svg
   xmlns:dc="http://purl.org/dc/elements/1.1/"
   xmlns:cc="http://creativecommons.org/ns#"
   xmlns:rdf="http://www.w3.org/1999/02/22-rdf-syntax-ns#"
   xmlns:svg="http://www.w3.org/2000/svg"
   xmlns="http://www.w3.org/2000/svg"
   viewBox="0 0 611.57013 499.26379"
   height="499.26379"
   width="611.57013"
   version="1.1"
   id="svg2">
  <metadata
     id="metadata8">
    <rdf:RDF>
      <cc:Work
         rdf:about="">
        <dc:format>image/svg+xml</dc:format>
        <dc:type
           rdf:resource="http://purl.org/dc/dcmitype/StillImage" />
        <dc:title></dc:title>
      </cc:Work>
    </rdf:RDF>
  </metadata>
  <defs
     id="defs6" />
  <path
     id="path4138"
     d="M 167.22167,498.67732 C 130.55206,495.36027 94.163953,487.35226 67.333883,476.69476 39.795543,465.75594 5.8863529,445.4137 1.7019329,437.32193 c -2.43245004,-4.70385 -2.27389004,-8.22522 0.58122,-12.90801 3.85222,-6.31822 5.76966,-6.67449 28.8781601,-5.36564 50.35077,2.85183 89.074657,-5.10256 119.847777,-24.61829 l 5.4423,-3.4514 -9.2563,-3.24504 c -36.27396,-12.7168 -62.404267,-38.61054 -76.348707,-75.65751 -3.93557,-10.45584 -3.74,-15.89823 0.7553,-21.01809 l 3.58321,-4.08105 -7.75503,-6.80855 c -14.9772,-13.14925 -29.20062,-35.51672 -34.99526,-55.03286 -3.60249,-12.13307 -6.57299,-33.10016 -6.03596,-42.60437 0.41711,-7.3817 0.86201,-8.62371 4.33226,-12.09395 3.30229,-3.30229 4.71908,-3.86742 9.69579,-3.86742 l 5.82839,0 -2.79061,-4.78087 c -5.17928,-8.87319 -11.1067,-24.22566 -14.38158,-37.24945 -4.03279,-16.03791 -4.52725,-38.136316 -1.19902,-53.587206 4.00848,-18.60885 15.52029,-43.024389 21.58966,-45.789781 1.71577,-0.781755 5.01709,-1.421373 7.33626,-1.421373 3.8373,0 6.05999,1.792325 24.7038,19.920526 11.2679,10.956288 27.112527,25.205868 35.210267,31.665718 52.62498,41.980756 108.49251,66.528916 161.15781,70.812646 l 8.46877,0.68882 -0.51326,-12.24106 c -1.52534,-36.379046 13.59293,-72.688796 41.22988,-99.022295 19.26738,-18.358678 44.15742,-30.5318747 70.83191,-34.64240968 12.52599,-1.93025402 38.72548,-0.689938 50.49911,2.39069098 19.02029,4.97675 36.57232,13.7398257 51.1568,25.5406787 l 7.23207,5.851738 9.87824,-1.314548 c 19.05331,-2.535523 34.18733,-8.013328 50.92399,-18.432095 10.27676,-6.3974077 15.61129,-7.1543327 20.9309,-2.969925 5.05298,3.974677 6.53922,8.736315 5.25511,16.836481 -1.38859,8.759324 -5.55433,18.165768 -12.35015,27.887288 -2.9471,4.21586 -5.03567,7.6652 -4.64129,7.6652 0.3944,0 4.4109,-1.88248 8.92556,-4.18327 12.78529,-6.51574 21.07524,-5.14387 24.91364,4.12283 2.22354,5.3681 0.64168,10.8948 -5.91086,20.65134 -7.16782,10.67269 -29.50917,35.318096 -43.46518,47.947726 l -10.35989,9.37529 0,10.08101 c 0,32.43696 -8.87976,80.09129 -22.08514,118.5227 -22.82304,66.42151 -65.27888,123.4508 -121.34116,162.99289 -34.45658,24.30306 -77.80656,43.79026 -125.49801,56.41534 -24.26572,6.42373 -50.77988,9.20382 -85.28702,8.94263 -13.89891,-0.10521 -27.15322,-0.36157 -29.45402,-0.56969 z m 60.95618,-27.90097 c 21.01522,-1.76049 31.45459,-3.45708 48.40638,-7.86689 76.67142,-19.94517 138.46308,-59.52073 181.15432,-116.02349 39.14609,-51.81071 62.77547,-121.33321 65.14524,-191.6708 0.36544,-10.84661 0.93338,-21.06574 1.26212,-22.70916 0.36306,-1.81504 7.01953,-9.23706 16.95625,-18.90636 13.91542,-13.54091 15.82305,-15.819666 12.77291,-15.257826 -1.97211,0.36326 -8.73661,1.01343 -15.03222,1.44482 -11.43513,0.783566 -11.45047,0.780856 -15.35655,-2.70922 -3.06888,-2.74205 -4.04729,-4.71165 -4.54821,-9.15586 -0.62816,-5.573 -0.53677,-5.76085 5.79576,-11.91342 3.53868,-3.43813 9.92955,-9.3723 14.20194,-13.18705 8.59525,-7.67458 9.28756,-7.32073 -7.17227,-3.66586 -4.27291,0.9488 -13.95419,2.04604 -21.51395,2.43833 l -13.74502,0.71324 -5.97609,-4.95615 C 465.06241,36.230927 448.61342,29.075981 422.40096,27.71672 c -41.31443,-2.14238 -79.1287,19.850314 -97.97239,56.980524 -8.89398,17.524966 -12.61135,37.977006 -10.24813,56.382546 2.78156,21.66366 2.79085,21.94917 0.8365,25.72847 -3.53932,6.84429 -8.34025,7.98442 -30.02309,7.12994 -35.55352,-1.40114 -67.45894,-9.03602 -101.47516,-24.28276 -39.5887,-17.74442 -80.97097,-46.31223 -114.456447,-79.013736 -5.01358,-4.8962 -9.37922,-8.44287 -9.70142,-7.88149 -2.05712,3.58423 -4.62422,14.52805 -5.57094,23.74951 -3.26275,31.780826 9.50986,64.052626 36.16705,91.381086 9.01615,9.2432 10.332467,11.50091 10.332467,17.72205 0,5.87811 -3.339697,10.33572 -9.190277,12.26658 -5.26559,1.7378 -19.82053,0.82748 -28.40336,-1.77646 -3.25618,-0.98789 -6.12292,-1.59356 -6.37054,-1.34595 -0.84423,0.84423 3.38138,15.42008 6.57786,22.68971 10.36201,23.56593 30.09037,42.23043 55.859417,52.8472 5.288,2.17864 10.30829,3.971 11.15619,3.98303 3.31538,0.0471 10.61032,4.77171 11.96785,7.75116 3.35456,7.36247 0.42717,15.87267 -6.60839,19.21126 -5.30314,2.51651 -18.71191,5.28397 -25.7258,5.30962 -3.12251,0.012 -5.67729,0.46943 -5.67729,1.01782 0,0.54839 2.20404,4.17887 4.89788,8.06773 16.13684,23.29539 40.71813,37.62083 71.36418,41.58947 7.02497,0.90973 13.34396,2.42038 15.19348,3.63222 4.08082,2.67388 6.7387,9.02516 5.78091,13.81413 -0.96029,4.80148 -8.6542,13.28816 -20.52039,22.63482 -27.6169,21.75304 -57.80486,33.43318 -100.022837,38.70021 l -11.95219,1.49113 11.95219,4.43481 c 28.704627,10.65073 60.087277,17.20137 92.031877,19.21022 14.12015,0.88795 42.874,0.699 55.57769,-0.36522 z"
     style="fill:#020202" />
</svg>
